<?xml version="1.0" encoding="UTF-8" standalone="no"?>
<!-- Created with Inkscape (http://www.inkscape.org/) -->

<svg
   xmlns:dc="http://purl.org/dc/elements/1.1/"
   xmlns:cc="http://creativecommons.org/ns#"
   xmlns:rdf="http://www.w3.org/1999/02/22-rdf-syntax-ns#"
   xmlns:svg="http://www.w3.org/2000/svg"
   xmlns="http://www.w3.org/2000/svg"
   xmlns:xlink="http://www.w3.org/1999/xlink"
   xmlns:sodipodi="http://sodipodi.sourceforge.net/DTD/sodipodi-0.dtd"
   xmlns:inkscape="http://www.inkscape.org/namespaces/inkscape"
   width="128"
   height="128"
   id="svg2606"
   sodipodi:version="0.32"
   inkscape:version="0.48.2 r9819"
   version="1.0"
   sodipodi:docname="ai.svg"
   inkscape:output_extension="org.inkscape.output.svg.inkscape"
   inkscape:export-filename="C:\Users\Joseph\Weblocal\spip-oxygen\png-52\ai.png"
   inkscape:export-xdpi="36.560001"
   inkscape:export-ydpi="36.560001">
  <defs
     id="defs2608">
    <linearGradient
       inkscape:collect="always"
       xlink:href="#XMLID_9_"
       id="linearGradient3894"
       gradientUnits="userSpaceOnUse"
       x1="54.103237"
       y1="32.580181"
       x2="32.584381"
       y2="31.295557"
       gradientTransform="matrix(0.6736273,0,0,0.6880491,42.39699,15.073568)" />
    <radialGradient
       cx="54.212399"
       cy="18.0903"
       r="26.416201"
       id="XMLID_14_"
       gradientUnits="userSpaceOnUse">
      <stop
         style="stop-color:#f0ff80;stop-opacity:1"
         offset="0.33140001"
         id="stop74" />
      <stop
         style="stop-color:#00ff00;stop-opacity:0;"
         offset="0.67438829"
         id="stop3926" />
    </radialGradient>
    <radialGradient
       inkscape:collect="always"
       xlink:href="#XMLID_14_"
       id="radialGradient3885"
       gradientUnits="userSpaceOnUse"
       cx="54.212399"
       cy="18.0903"
       r="26.416201"
       gradientTransform="matrix(0.624346,0,0,0.624346,45.032334,16.880096)" />
    <linearGradient
       id="linearGradient8528">
      <stop
         style="stop-color:#888888;stop-opacity:0.39215687;"
         offset="0"
         id="stop8530" />
      <stop
         id="stop8540"
         offset="0.5"
         style="stop-color:#888888;stop-opacity:1;" />
      <stop
         style="stop-color:#888888;stop-opacity:0.39215687;"
         offset="1"
         id="stop8532" />
    </linearGradient>
    <radialGradient
       gradientUnits="userSpaceOnUse"
       r="65.999802"
       cy="25"
       cx="60"
       id="XMLID_11_">
      <stop
         id="stop7985"
         style="stop-color:#77DE6C"
         offset="0" />
      <stop
         id="stop7987"
         style="stop-color:#0A8000"
         offset="1" />
    </radialGradient>
    <radialGradient
       style="fill-opacity:1.0;fill:url(#linearGradient6728)"
       gradientUnits="userSpaceOnUse"
       r="25.1951"
       cy="100"
       cx="23.7837"
       id="radialGradient4397">
      <stop
         offset="0"
         style="stop-color:#2eb800;stop-opacity:1;"
         id="stop4401" />
      <stop
         id="stop4403"
         style="stop-color:#003a00;stop-opacity:1;"
         offset="1" />
    </radialGradient>
    <linearGradient
       y2="19.9497"
       x2="52.9131"
       y1="8.6162"
       x1="62.2461"
       gradientUnits="userSpaceOnUse"
       id="linearGradient5332">
      <stop
         id="stop5334"
         style="stop-color:#000000;stop-opacity:0;"
         offset="0" />
      <stop
         id="stop5336"
         style="stop-color:#07631a;stop-opacity:1;"
         offset="1" />
    </linearGradient>
    <linearGradient
       id="linearGradient2848">
      <stop
         style="stop-color:#c3ff6a;stop-opacity:1;"
         offset="0"
         id="stop2850" />
      <stop
         style="stop-color:#a6ff88;stop-opacity:0;"
         offset="1"
         id="stop2852" />
    </linearGradient>
    <radialGradient
       gradientUnits="userSpaceOnUse"
       fy="88.667"
       fx="17.1172"
       r="14"
       cy="94"
       cx="19.7837"
       id="radialGradient4531">
      <stop
         id="stop4533"
         style="stop-color:#ffffff;stop-opacity:1;"
         offset="0" />
      <stop
         offset="0.5"
         style="stop-color:#ffffff;stop-opacity:0.70886075;"
         id="stop4537" />
      <stop
         id="stop4535"
         style="stop-color:#ffffff;stop-opacity:0;"
         offset="1" />
    </radialGradient>
    <linearGradient
       id="linearGradient4540">
      <stop
         style="stop-color:#008800;stop-opacity:1;"
         offset="0"
         id="stop4542" />
      <stop
         style="stop-color:#0aa800;stop-opacity:0.60759491;"
         offset="1"
         id="stop4544" />
    </linearGradient>
    <radialGradient
       id="XMLID_10_"
       cx="23.7837"
       cy="100"
       r="25.1951"
       gradientUnits="userSpaceOnUse"
       style="fill-opacity:1.0;fill:url(#linearGradient6728)">
      <stop
         offset="0"
         style="stop-color:#287f00;stop-opacity:1;"
         id="stop35" />
      <stop
         id="stop9094"
         style="stop-color:#3cf000;stop-opacity:1;"
         offset="0.5" />
      <stop
         offset="1"
         style="stop-color:#003a00;stop-opacity:1;"
         id="stop43" />
    </radialGradient>
    <linearGradient
       id="linearGradient4390">
      <stop
         style="stop-color:#00a208;stop-opacity:1;"
         offset="0"
         id="stop4392" />
      <stop
         id="stop4398"
         offset="0.5"
         style="stop-color:#dfffa8;stop-opacity:1;" />
      <stop
         style="stop-color:#8aff47;stop-opacity:0.63291138;"
         offset="1"
         id="stop4394" />
    </linearGradient>
    <linearGradient
       id="XMLID_9_"
       gradientUnits="userSpaceOnUse"
       x1="40.1172"
       y1="49"
       x2="48.1172"
       y2="49">
      <stop
         offset="0"
         style="stop-color:#008e00;stop-opacity:1;"
         id="stop16" />
      <stop
         offset="0.2294"
         style="stop-color:#008700"
         id="stop18" />
      <stop
         offset="0.5127"
         style="stop-color:#007800"
         id="stop20" />
      <stop
         offset="0.8231"
         style="stop-color:#005F00"
         id="stop22" />
      <stop
         offset="1"
         style="stop-color:#004D00"
         id="stop24" />
    </linearGradient>
    <linearGradient
       id="XMLID_13_"
       gradientUnits="userSpaceOnUse"
       x1="62.2461"
       y1="8.6162"
       x2="52.9131"
       y2="19.9497">
      <stop
         offset="0"
         style="stop-color:#000000;stop-opacity:1;"
         id="stop88" />
      <stop
         offset="1"
         style="stop-color:#000000;stop-opacity:0;"
         id="stop104" />
    </linearGradient>
    <linearGradient
       id="linearGradient10207">
      <stop
         style="stop-color:#a2a2a2;stop-opacity:1;"
         offset="0"
         id="stop10209" />
      <stop
         style="stop-color:#ffffff;stop-opacity:1;"
         offset="1"
         id="stop10211" />
    </linearGradient>
    <linearGradient
       id="XMLID_12_"
       gradientUnits="userSpaceOnUse"
       x1="96"
       y1="104"
       x2="88.000198"
       y2="96.000198">
      <stop
         offset="0"
         style="stop-color:#888A85"
         id="stop83" />
      <stop
         offset="0.0072"
         style="stop-color:#8C8E89"
         id="stop85" />
      <stop
         offset="0.0673"
         style="stop-color:#ABACA9"
         id="stop87" />
      <stop
         offset="0.1347"
         style="stop-color:#C5C6C4"
         id="stop89" />
      <stop
         offset="0.2652576"
         style="stop-color:#DBDBDA"
         id="stop91" />
      <stop
         offset="0.37646064"
         style="stop-color:#EBEBEB"
         id="stop93" />
      <stop
         offset="0.48740286"
         style="stop-color:#F7F7F6"
         id="stop95" />
      <stop
         offset="0.6324091"
         style="stop-color:#FDFDFD"
         id="stop97" />
      <stop
         offset="1"
         style="stop-color:#FFFFFF"
         id="stop99" />
    </linearGradient>
    <radialGradient
       id="XMLID_8_"
       cx="102"
       cy="112.3047"
       r="139.55859"
       gradientUnits="userSpaceOnUse">
      <stop
         offset="0"
         style="stop-color:#b7b8b9;stop-opacity:1;"
         id="stop41" />
      <stop
         offset="0.18851049"
         style="stop-color:#ECECEC"
         id="stop47" />
      <stop
         offset="0.25718147"
         style="stop-color:#FAFAFA"
         id="stop49" />
      <stop
         offset="0.30111277"
         style="stop-color:#FFFFFF"
         id="stop51" />
      <stop
         offset="0.5313"
         style="stop-color:#FAFAFA"
         id="stop53" />
      <stop
         offset="0.8449"
         style="stop-color:#EBECEC"
         id="stop55" />
      <stop
         offset="1"
         style="stop-color:#E1E2E3"
         id="stop57" />
    </radialGradient>
    <filter
       inkscape:collect="always"
       x="-0.19200002"
       width="1.3839999"
       y="-0.19199999"
       height="1.3839999"
       id="filter6697">
      <feGaussianBlur
         inkscape:collect="always"
         stdDeviation="1.9447689"
         id="feGaussianBlur6699" />
    </filter>
    <clipPath
       clipPathUnits="userSpaceOnUse"
       id="clipPath7084">
      <path
         style="fill:#000000;fill-opacity:1;fill-rule:evenodd;stroke:none;stroke-width:1px;stroke-linecap:butt;stroke-linejoin:miter;stroke-opacity:1"
         d="M 72,88 L 40,120 L 32,120 L 32,80 L 72,80 L 72,88 z"
         id="path7086" />
    </clipPath>
    <radialGradient
       inkscape:collect="always"
       xlink:href="#XMLID_8_"
       id="radialGradient9437"
       gradientUnits="userSpaceOnUse"
       gradientTransform="matrix(1,0,0,0.9996653,2e-6,3.0160848e-3)"
       cx="102"
       cy="112.3047"
       r="139.55859" />
    <linearGradient
       inkscape:collect="always"
       xlink:href="#linearGradient10207"
       id="linearGradient10213"
       x1="98.617439"
       y1="106.41443"
       x2="91.228737"
       y2="99.254974"
       gradientUnits="userSpaceOnUse" />
    <filter
       inkscape:collect="always"
       id="filter2770">
      <feGaussianBlur
         inkscape:collect="always"
         stdDeviation="2.0786429"
         id="feGaussianBlur2772" />
    </filter>
    <radialGradient
       inkscape:collect="always"
       xlink:href="#XMLID_13_"
       id="radialGradient7858"
       gradientUnits="userSpaceOnUse"
       gradientTransform="matrix(1,0,0,0.2670157,0,81.512404)"
       cx="45.43161"
       cy="111.20621"
       fx="45.43161"
       fy="111.20621"
       r="33.764351" />
    <linearGradient
       inkscape:collect="always"
       xlink:href="#XMLID_9_"
       id="linearGradient7860"
       gradientUnits="userSpaceOnUse"
       x1="40.1172"
       y1="49"
       x2="48.1172"
       y2="49" />
    <linearGradient
       inkscape:collect="always"
       xlink:href="#linearGradient4390"
       id="linearGradient7862"
       gradientUnits="userSpaceOnUse"
       x1="44.142799"
       y1="3.4933131"
       x2="44.142799"
       y2="94.157005" />
    <linearGradient
       inkscape:collect="always"
       xlink:href="#XMLID_13_"
       id="linearGradient7864"
       gradientUnits="userSpaceOnUse"
       gradientTransform="matrix(1,0,0,0.9999508,19.75779,0)"
       x1="44.117001"
       y1="88.249001"
       x2="44.117001"
       y2="83.652809" />
    <linearGradient
       inkscape:collect="always"
       xlink:href="#XMLID_10_"
       id="linearGradient7866"
       gradientUnits="userSpaceOnUse"
       gradientTransform="matrix(1,0,0,0.8419836,19.882588,18.956994)"
       x1="0.1174117"
       y1="101.0003"
       x2="43.927124"
       y2="92.500053" />
    <linearGradient
       inkscape:collect="always"
       xlink:href="#linearGradient4540"
       id="linearGradient7868"
       gradientUnits="userSpaceOnUse"
       x1="3.9885471"
       y1="100.01298"
       x2="43.874181"
       y2="100.01298" />
    <radialGradient
       inkscape:collect="always"
       xlink:href="#radialGradient4531"
       id="radialGradient7870"
       gradientUnits="userSpaceOnUse"
       gradientTransform="matrix(0.6862309,-0.2788753,0.2607269,0.6833644,-6.7420546e-2,33.863485)"
       cx="22.501722"
       cy="91.356857"
       fx="19.835222"
       fy="86.023857"
       r="14" />
    <radialGradient
       inkscape:collect="always"
       xlink:href="#linearGradient2848"
       id="radialGradient7872"
       gradientUnits="userSpaceOnUse"
       gradientTransform="matrix(1,-2.6486575e-2,1.3961697e-2,0.5271235,18.16764,52.58348)"
       cx="27.127048"
       cy="113.89391"
       fx="27.127048"
       fy="113.89391"
       r="11.990002" />
    <linearGradient
       inkscape:collect="always"
       xlink:href="#linearGradient5332"
       id="linearGradient7874"
       gradientUnits="userSpaceOnUse"
       gradientTransform="matrix(1,0,0,-1,39.75779,128)"
       x1="22.025112"
       y1="29.212114"
       x2="21.785669"
       y2="7.9726162" />
    <linearGradient
       inkscape:collect="always"
       xlink:href="#radialGradient4397"
       id="linearGradient7876"
       gradientUnits="userSpaceOnUse"
       gradientTransform="scale(1,0.9999508)"
       x1="92.25"
       y1="8.4984522"
       x2="68"
       y2="15.500762" />
    <linearGradient
       inkscape:collect="always"
       xlink:href="#linearGradient2848"
       id="linearGradient7878"
       gradientUnits="userSpaceOnUse"
       gradientTransform="matrix(0.962555,0,0,0.95911,3.8148459,-0.5857864)"
       x1="80.965881"
       y1="4.8331532"
       x2="76.376823"
       y2="14.051684" />
    <linearGradient
       inkscape:collect="always"
       xlink:href="#linearGradient8528"
       id="linearGradient8534"
       x1="83.806137"
       y1="33.289322"
       x2="83.806137"
       y2="92.312012"
       gradientUnits="userSpaceOnUse" />
    <linearGradient
       inkscape:collect="always"
       xlink:href="#linearGradient8528"
       id="linearGradient8536"
       x1="83.806137"
       y1="33.289322"
       x2="83.806137"
       y2="92.312012"
       gradientUnits="userSpaceOnUse" />
    <linearGradient
       inkscape:collect="always"
       xlink:href="#linearGradient8528"
       id="linearGradient8538"
       x1="83.806137"
       y1="33.289322"
       x2="83.806137"
       y2="92.312012"
       gradientUnits="userSpaceOnUse" />
    <linearGradient
       inkscape:collect="always"
       xlink:href="#linearGradient8528"
       id="linearGradient8559"
       gradientUnits="userSpaceOnUse"
       x1="83.806137"
       y1="33.289322"
       x2="83.806137"
       y2="92.312012" />
    <linearGradient
       inkscape:collect="always"
       xlink:href="#linearGradient8528"
       id="linearGradient8561"
       gradientUnits="userSpaceOnUse"
       x1="83.806137"
       y1="33.289322"
       x2="83.806137"
       y2="92.312012" />
    <linearGradient
       inkscape:collect="always"
       xlink:href="#linearGradient8528"
       id="linearGradient8563"
       gradientUnits="userSpaceOnUse"
       x1="83.806137"
       y1="33.289322"
       x2="83.806137"
       y2="92.312012" />
    <linearGradient
       inkscape:collect="always"
       xlink:href="#linearGradient8528"
       id="linearGradient8565"
       gradientUnits="userSpaceOnUse"
       x1="83.806137"
       y1="33.289322"
       x2="83.806137"
       y2="92.312012" />
    <linearGradient
       inkscape:collect="always"
       xlink:href="#linearGradient8528"
       id="linearGradient8567"
       gradientUnits="userSpaceOnUse"
       x1="83.806137"
       y1="33.289322"
       x2="83.806137"
       y2="92.312012" />
    <linearGradient
       inkscape:collect="always"
       xlink:href="#linearGradient8528"
       id="linearGradient8569"
       gradientUnits="userSpaceOnUse"
       x1="83.806137"
       y1="33.289322"
       x2="83.806137"
       y2="92.312012" />
    <linearGradient
       inkscape:collect="always"
       xlink:href="#linearGradient8528"
       id="linearGradient8603"
       gradientUnits="userSpaceOnUse"
       x1="83.806137"
       y1="33.289322"
       x2="83.806137"
       y2="92.312012" />
    <linearGradient
       inkscape:collect="always"
       xlink:href="#linearGradient8528"
       id="linearGradient8605"
       gradientUnits="userSpaceOnUse"
       x1="83.806137"
       y1="33.289322"
       x2="83.806137"
       y2="92.312012" />
    <linearGradient
       inkscape:collect="always"
       xlink:href="#linearGradient8528"
       id="linearGradient8607"
       gradientUnits="userSpaceOnUse"
       x1="83.806137"
       y1="33.289322"
       x2="83.806137"
       y2="92.312012" />
    <linearGradient
       inkscape:collect="always"
       xlink:href="#linearGradient8528"
       id="linearGradient8609"
       gradientUnits="userSpaceOnUse"
       x1="83.806137"
       y1="33.289322"
       x2="83.806137"
       y2="92.312012" />
    <linearGradient
       inkscape:collect="always"
       xlink:href="#linearGradient8528"
       id="linearGradient8611"
       gradientUnits="userSpaceOnUse"
       x1="83.806137"
       y1="33.289322"
       x2="83.806137"
       y2="92.312012" />
    <linearGradient
       inkscape:collect="always"
       xlink:href="#linearGradient8528"
       id="linearGradient8613"
       gradientUnits="userSpaceOnUse"
       x1="83.806137"
       y1="33.289322"
       x2="83.806137"
       y2="92.312012" />
    <linearGradient
       inkscape:collect="always"
       xlink:href="#XMLID_9_"
       id="linearGradient9414"
       gradientUnits="userSpaceOnUse"
       x1="40.1172"
       y1="49"
       x2="48.1172"
       y2="49" />
    <linearGradient
       inkscape:collect="always"
       xlink:href="#linearGradient4390"
       id="linearGradient9416"
       gradientUnits="userSpaceOnUse"
       x1="44.142799"
       y1="3.4933131"
       x2="44.142799"
       y2="94.157005" />
    <linearGradient
       inkscape:collect="always"
       xlink:href="#XMLID_13_"
       id="linearGradient9418"
       gradientUnits="userSpaceOnUse"
       gradientTransform="matrix(1,0,0,0.9999508,19.75779,0)"
       x1="44.117001"
       y1="88.249001"
       x2="44.117001"
       y2="83.652809" />
    <linearGradient
       inkscape:collect="always"
       xlink:href="#XMLID_10_"
       id="linearGradient9420"
       gradientUnits="userSpaceOnUse"
       gradientTransform="matrix(1,0,0,0.8419836,19.882588,18.956994)"
       x1="0.1174117"
       y1="101.0003"
       x2="43.927124"
       y2="92.500053" />
    <linearGradient
       inkscape:collect="always"
       xlink:href="#linearGradient4540"
       id="linearGradient9422"
       gradientUnits="userSpaceOnUse"
       x1="3.9885471"
       y1="100.01298"
       x2="43.874181"
       y2="100.01298" />
    <radialGradient
       inkscape:collect="always"
       xlink:href="#radialGradient4531"
       id="radialGradient9424"
       gradientUnits="userSpaceOnUse"
       gradientTransform="matrix(0.6862309,-0.2788753,0.2607269,0.6833644,-6.7420546e-2,33.863485)"
       cx="22.501722"
       cy="91.356857"
       fx="19.835222"
       fy="86.023857"
       r="14" />
    <radialGradient
       inkscape:collect="always"
       xlink:href="#linearGradient2848"
       id="radialGradient9426"
       gradientUnits="userSpaceOnUse"
       gradientTransform="matrix(1,-2.6486575e-2,1.3961697e-2,0.5271235,18.16764,52.58348)"
       cx="27.127048"
       cy="113.89391"
       fx="27.127048"
       fy="113.89391"
       r="11.990002" />
    <linearGradient
       inkscape:collect="always"
       xlink:href="#linearGradient5332"
       id="linearGradient9428"
       gradientUnits="userSpaceOnUse"
       gradientTransform="matrix(1,0,0,-1,39.75779,128)"
       x1="22.025112"
       y1="29.212114"
       x2="21.785669"
       y2="7.9726162" />
    <linearGradient
       inkscape:collect="always"
       xlink:href="#radialGradient4397"
       id="linearGradient9430"
       gradientUnits="userSpaceOnUse"
       gradientTransform="scale(1,0.9999508)"
       x1="92.25"
       y1="8.4984522"
       x2="68"
       y2="15.500762" />
    <linearGradient
       inkscape:collect="always"
       xlink:href="#radialGradient4397"
       id="linearGradient9433"
       gradientUnits="userSpaceOnUse"
       gradientTransform="matrix(0.64,0,0,0.6451296,24.32,20.000001)"
       x1="92.25"
       y1="8.4984522"
       x2="68"
       y2="15.500762" />
    <linearGradient
       inkscape:collect="always"
       xlink:href="#XMLID_10_"
       id="linearGradient9440"
       gradientUnits="userSpaceOnUse"
       gradientTransform="matrix(0.6433337,0,0,0.5432152,37.044465,32.23032)"
       x1="0.1174117"
       y1="101.0003"
       x2="43.927124"
       y2="92.500053" />
    <linearGradient
       inkscape:collect="always"
       xlink:href="#XMLID_13_"
       id="linearGradient9443"
       gradientUnits="userSpaceOnUse"
       gradientTransform="matrix(0.64,0,0,0.6451296,36.964986,20.000001)"
       x1="44.117001"
       y1="88.249001"
       x2="44.117001"
       y2="83.652809" />
    <linearGradient
       inkscape:collect="always"
       xlink:href="#XMLID_9_"
       id="linearGradient9447"
       gradientUnits="userSpaceOnUse"
       x1="40.1172"
       y1="49"
       x2="48.1172"
       y2="49"
       gradientTransform="matrix(0.64,0,0,0.6451296,37.04512,20.000001)" />
    <radialGradient
       inkscape:collect="always"
       xlink:href="#XMLID_13_"
       id="radialGradient10249"
       gradientUnits="userSpaceOnUse"
       gradientTransform="matrix(1,0,0,0.2670157,0,81.512404)"
       cx="45.43161"
       cy="111.20621"
       fx="45.43161"
       fy="111.20621"
       r="33.764351" />
    <linearGradient
       inkscape:collect="always"
       xlink:href="#linearGradient4390"
       id="linearGradient10253"
       gradientUnits="userSpaceOnUse"
       x1="44.142799"
       y1="3.4933131"
       x2="44.142799"
       y2="94.157005" />
    <linearGradient
       inkscape:collect="always"
       xlink:href="#XMLID_13_"
       id="linearGradient3910"
       gradientUnits="userSpaceOnUse"
       gradientTransform="matrix(0.4999999,0,0,0.5990894,43.9415,23.614063)"
       x1="44.117001"
       y1="88.249001"
       x2="44.117001"
       y2="83.652809" />
    <linearGradient
       inkscape:collect="always"
       xlink:href="#XMLID_9_"
       id="linearGradient3914"
       gradientUnits="userSpaceOnUse"
       gradientTransform="matrix(0.4848485,0,0,0.6314195,44.549334,20.000001)"
       x1="40.1172"
       y1="49"
       x2="48.1172"
       y2="49" />
    <linearGradient
       inkscape:collect="always"
       xlink:href="#XMLID_10_"
       id="linearGradient4914"
       gradientUnits="userSpaceOnUse"
       gradientTransform="matrix(0.6433337,0,0,0.5432152,37.044465,32.23032)"
       x1="0.1174117"
       y1="101.0003"
       x2="43.927124"
       y2="92.500053" />
    <linearGradient
       inkscape:collect="always"
       xlink:href="#linearGradient4540"
       id="linearGradient4916"
       gradientUnits="userSpaceOnUse"
       x1="3.9885471"
       y1="100.01298"
       x2="43.874181"
       y2="100.01298" />
    <radialGradient
       inkscape:collect="always"
       xlink:href="#radialGradient4531"
       id="radialGradient4918"
       gradientUnits="userSpaceOnUse"
       gradientTransform="matrix(0.6862309,-0.2788753,0.2607269,0.6833644,-0.06742055,33.863485)"
       cx="22.501722"
       cy="91.356857"
       fx="19.835222"
       fy="86.023857"
       r="14" />
    <radialGradient
       inkscape:collect="always"
       xlink:href="#linearGradient2848"
       id="radialGradient4920"
       gradientUnits="userSpaceOnUse"
       gradientTransform="matrix(1,-0.02648657,0.0139617,0.5271235,18.16764,52.58348)"
       cx="27.127048"
       cy="113.89391"
       fx="27.127048"
       fy="113.89391"
       r="11.990002" />
    <linearGradient
       inkscape:collect="always"
       xlink:href="#linearGradient5332"
       id="linearGradient4922"
       gradientUnits="userSpaceOnUse"
       gradientTransform="matrix(1,0,0,-1,39.75779,128)"
       x1="22.025112"
       y1="29.212114"
       x2="21.785669"
       y2="7.9726162" />
    <radialGradient
       gradientTransform="matrix(0.901746,0.00739379,-0.00120184,0.329372,2.127997,26.71591)"
       id="radialGradient6774"
       gradientUnits="userSpaceOnUse"
       xlink:show="other"
       xlink:type="simple"
       r="17.02107"
       cx="21.148216"
       fx="21.148216"
       cy="41.692692"
       fy="41.692692"
       xlink:actuate="onLoad">
      <stop
         stop-opacity="1"
         stop-color="#000000"
         offset="0"
         id="stop70" />
      <stop
         stop-opacity="0"
         stop-color="#000000"
         offset="1"
         id="stop72" />
    </radialGradient>
    <linearGradient
       x1="10.071428"
       y1="12.857143"
       x2="36.714283"
       gradientUnits="userSpaceOnUse"
       y2="33.642857"
       xlink:type="simple"
       xlink:actuate="onLoad"
       id="linearGradient6748"
       xlink:show="other">
      <stop
         stop-opacity="1"
         stop-color="#3675d1"
         offset="0"
         id="stop55-8" />
      <stop
         stop-opacity="1"
         stop-color="#25579f"
         offset="1"
         id="stop57-6" />
    </linearGradient>
    <linearGradient
       x1="34.915569"
       y1="32.966518"
       x2="11.013001"
       gradientUnits="userSpaceOnUse"
       y2="8.8236609"
       xlink:type="simple"
       xlink:actuate="onLoad"
       id="linearGradient6756"
       xlink:show="other">
      <stop
         stop-opacity="0.72941178"
         stop-color="#FFFFFF"
         offset="0"
         id="stop60" />
      <stop
         stop-opacity="1"
         stop-color="#FFFFFF"
         offset="1"
         id="stop62" />
    </linearGradient>
    <linearGradient
       gradientTransform="translate(-3.410666,0.141595)"
       id="linearGradient6760"
       gradientUnits="userSpaceOnUse"
       xlink:show="other"
       xlink:type="simple"
       x1="20"
       y1="21.001263"
       y2="21.001263"
       x2="35.964085"
       xlink:actuate="onLoad">
      <stop
         stop-opacity="1"
         stop-color="#bdcce1"
         offset="0"
         id="stop65" />
      <stop
         stop-opacity="0"
         stop-color="#bdcce1"
         offset="1"
         id="stop67" />
    </linearGradient>
    <linearGradient
       x1="46.882267"
       y1="75.753494"
       x2="46.882267"
       y2="35.372066"
       id="linearGradient3827"
       xlink:href="#linearGradient3821"
       gradientUnits="userSpaceOnUse"
       gradientTransform="translate(-4,0)" />
    <linearGradient
       id="linearGradient3821">
      <stop
         id="stop3823"
         style="stop-color:#de6a07;stop-opacity:1"
         offset="0" />
      <stop
         id="stop3825"
         style="stop-color:#f8a425;stop-opacity:1"
         offset="1" />
    </linearGradient>
    <linearGradient
       inkscape:collect="always"
       xlink:href="#linearGradient3821"
       id="linearGradient8691"
       gradientUnits="userSpaceOnUse"
       gradientTransform="translate(-100,15)"
       x1="46.882267"
       y1="75.753494"
       x2="46.882267"
       y2="35.372066" />
  </defs>
  <sodipodi:namedview
     id="base"
     pagecolor="#ffffff"
     bordercolor="#666666"
     borderopacity="1.0"
     inkscape:pageopacity="0.0"
     inkscape:pageshadow="2"
     inkscape:zoom="2.8284271"
     inkscape:cx="-6.1803485"
     inkscape:cy="60.344296"
     inkscape:document-units="px"
     inkscape:current-layer="layer1"
     width="128px"
     height="128px"
     showgrid="true"
     inkscape:grid-points="true"
     showguides="true"
     inkscape:guide-bbox="true"
     inkscape:window-width="1235"
     inkscape:window-height="692"
     inkscape:window-x="0"
     inkscape:window-y="0"
     inkscape:window-maximized="0">
    <inkscape:grid
       id="GridFromPre046Settings"
       type="xygrid"
       originx="0px"
       originy="0px"
       spacingx="4px"
       spacingy="4px"
       color="#0000ff"
       empcolor="#0000ff"
       opacity="0.2"
       empopacity="0.4"
       empspacing="2" />
  </sodipodi:namedview>
  <metadata
     id="metadata2611">
    <rdf:RDF>
      <cc:Work
         rdf:about="">
        <dc:format>image/svg+xml</dc:format>
        <dc:type
           rdf:resource="http://purl.org/dc/dcmitype/StillImage" />
        <dc:title></dc:title>
      </cc:Work>
    </rdf:RDF>
  </metadata>
  <g
     inkscape:label="Livello 1"
     inkscape:groupmode="layer"
     id="layer1">
    <path
       style="opacity:0.5;fill:#000000;fill-opacity:1;filter:url(#filter2770)"
       d="M 16,8 L 16,120 C 16,120 79.15625,120 79.15625,120 L 79.1875,120 C 79.187503,120 91.09375,110.09375 96.59375,104.59375 C 102.09375,99.09375 112,87.1875 112,87.1875 L 112,87.15625 L 112,8 L 16,8 z"
       id="path7865"
       sodipodi:nodetypes="csccscccc"
       transform="matrix(1.0416667,0,0,1.0267857,-2.6666667,-1.2142891)" />
    <path
       style="fill:#ffffff;fill-opacity:1"
       d="M 16.000001,8 L 16,120 C 16,120 79.146418,120 79.146418,120 L 112,87.14642 L 112,8 L 16.000001,8 z"
       id="path34"
       sodipodi:nodetypes="cccccc" />
    <path
       style="fill:url(#radialGradient9437);fill-opacity:1"
       d="M 18.000002,9.0000034 C 17.449002,9.0000034 17.000002,9.4488534 17.000002,9.9996684 L 17.000002,117.96352 C 17.000002,118.51533 17.449002,118.96318 18.000002,118.96318 L 77.171999,118.96318 C 77.434999,118.96318 79.934679,119.08131 80.12068,118.89438 L 110.707,88.094202 C 110.894,87.907264 111,85.40942 111,85.146508 L 111,9.9996684 C 111,9.4488534 110.552,9.0000034 110,9.0000034 L 18.000002,9.0000034 z"
       id="path59"
       sodipodi:nodetypes="ccccccccccc" />
    <path
       d="M 41.879531,115.98249 C 41.879531,115.98249 66.18914,91.672876 66.18914,91.672876 C 66.18914,91.672876 56.836,94.586 46.586,94.586 C 46.586,104.836 41.879531,115.98249 41.879531,115.98249 z"
       id="path5540"
       style="opacity:0.4;fill:#000000;fill-opacity:1;filter:url(#filter6697)"
       sodipodi:nodetypes="cccc"
       clip-path="url(#clipPath7084)"
       transform="translate(40,0)" />
    <text
       xml:space="preserve"
       style="font-size:40px;font-style:normal;font-weight:normal;text-align:center;line-height:125%;letter-spacing:0px;word-spacing:0px;text-anchor:middle;fill:#666666;fill-opacity:1;stroke:none;font-family:Sans"
       x="64"
       y="32"
       id="text9950"
       sodipodi:linespacing="125%"
       inkscape:export-filename="C:\Users\Joseph\Weblocal\spip-oxygen\png-128\ram.png"
       inkscape:export-xdpi="90"
       inkscape:export-ydpi="90"><tspan
         sodipodi:role="line"
         id="tspan9952"
         x="64"
         y="32"
         style="font-size:24px;font-style:normal;font-variant:normal;font-weight:bold;font-stretch:normal;fill:#666666;font-family:Liberation Sans Narrow;-inkscape-font-specification:Liberation Sans Narrow Bold">AI</tspan></text>
    <g
       id="g8685"
       transform="matrix(1.2831128,0,0,1.2831128,127.9351,-12.046379)">
      <path
         d="M -61.125,51 -74,91 l 8.46875,0 2.75,-9.46875 13.65625,0 2.6875,9.46875 8.5,0 -12.9375,-40 -10.25,0 z M -30,51.03125 c -0.59444,4.2e-5 -1.176774,0.06115 -1.71875,0.1875 -0.524506,0.126436 -0.97289,0.362529 -1.375,0.6875 -0.384638,0.306997 -0.710221,0.726409 -0.9375,1.25 -0.227286,0.505615 -0.312504,1.16112 -0.3125,1.9375 -4e-6,0.7584 0.08521,1.382655 0.3125,1.90625 0.227279,0.523667 0.552862,0.956272 0.9375,1.28125 0.40211,0.306991 0.850494,0.511835 1.375,0.65625 0.541976,0.126431 1.12431,0.218784 1.71875,0.21875 0.594424,3.4e-5 1.131742,-0.09232 1.65625,-0.21875 0.524489,-0.144415 0.990357,-0.349259 1.375,-0.65625 C -26.566646,57.956272 -26.227295,57.523667 -26,57 c 0.244753,-0.523595 0.343737,-1.14785 0.34375,-1.90625 -1.3e-5,-0.77638 -0.099,-1.431885 -0.34375,-1.9375 -0.227295,-0.523591 -0.566646,-0.943003 -0.96875,-1.25 -0.384643,-0.324971 -0.850511,-0.561064 -1.375,-0.6875 -0.524508,-0.126351 -1.061826,-0.187458 -1.65625,-0.1875 z m -25.96875,5.59375 4.875,17.8125 -9.65625,0 c 1.557914,-5.939686 3.614347,-11.772346 4.78125,-17.8125 z m 21.9375,6.40625 0,27.96875 8.03125,0 0,-27.96875 -8.03125,0 z"
         inkscape:connector-curvature="0"
         id="path3799"
         style="font-size:55.46882629px;font-style:normal;font-variant:normal;font-weight:bold;font-stretch:normal;text-align:start;line-height:125%;writing-mode:lr-tb;text-anchor:start;fill:url(#linearGradient8691);fill-opacity:1;stroke:none;font-family:Droid Sans;-inkscape-font-specification:Abandoned Bitplane Bold" />
      <path
         d="m -34.3125,55.59375 c -0.01018,0.168949 -0.03125,0.317283 -0.03125,0.5 -4e-6,0.7584 0.08521,1.382655 0.3125,1.90625 0.227279,0.523667 0.552862,0.956272 0.9375,1.28125 0.40211,0.306991 0.850494,0.511835 1.375,0.65625 0.541976,0.126431 1.12431,0.218784 1.71875,0.21875 0.594424,3.4e-5 1.131742,-0.09232 1.65625,-0.21875 0.524489,-0.144415 0.990357,-0.349259 1.375,-0.65625 C -26.566646,58.956272 -26.227295,58.523667 -26,58 c 0.244753,-0.523595 0.343737,-1.14785 0.34375,-1.90625 -3e-6,-0.182266 -0.01973,-0.331433 -0.03125,-0.5 C -25.72587,56.121064 -25.814429,56.603012 -26,57 c -0.227295,0.523667 -0.566646,0.956272 -0.96875,1.28125 -0.384643,0.306991 -0.850511,0.511835 -1.375,0.65625 -0.524508,0.12643 -1.061826,0.218784 -1.65625,0.21875 -0.59444,3.4e-5 -1.176774,-0.09232 -1.71875,-0.21875 -0.524506,-0.144415 -0.97289,-0.349259 -1.375,-0.65625 -0.384638,-0.324978 -0.710221,-0.757583 -0.9375,-1.28125 -0.172183,-0.396648 -0.247417,-0.879511 -0.28125,-1.40625 z M -55.96875,56.625 c -0.07224,0.399671 -0.154876,0.861324 -0.28125,1.40625 -0.108356,0.544991 -0.243762,1.132412 -0.40625,1.75 -0.144466,0.599486 -0.306261,1.19491 -0.46875,1.8125 -0.162521,0.61765 -0.324318,1.205069 -0.46875,1.75 -0.144465,0.544987 -0.279874,1.019725 -0.40625,1.4375 -0.108353,0.417828 -0.19585,0.737706 -0.25,0.9375 l -2.5,8.71875 0.28125,0 2.21875,-7.71875 c 0.05415,-0.199794 0.141647,-0.519672 0.25,-0.9375 0.126376,-0.417775 0.261785,-0.892513 0.40625,-1.4375 0.144432,-0.544931 0.306229,-1.13235 0.46875,-1.75 0.162489,-0.61759 0.324284,-1.213014 0.46875,-1.8125 0.162488,-0.617588 0.297894,-1.205009 0.40625,-1.75 0.126374,-0.544926 0.20901,-1.006579 0.28125,-1.40625 0.09026,0.63582 0.252058,1.404268 0.46875,2.3125 0.216654,0.908297 0.452752,1.810515 0.6875,2.71875 0.252766,0.890129 0.470807,1.692751 0.6875,2.4375 0.216653,0.744803 0.391643,1.29805 0.5,1.625 l 2.25,7.71875 0.28125,0 -2.53125,-8.71875 c -0.108357,-0.32695 -0.283347,-0.880197 -0.5,-1.625 -0.216693,-0.744749 -0.434734,-1.547371 -0.6875,-2.4375 -0.234748,-0.908235 -0.470846,-1.810453 -0.6875,-2.71875 -0.216692,-0.908232 -0.37849,-1.67668 -0.46875,-2.3125 z m -6.8125,24.90625 -2.75,9.46875 -8.15625,0 -0.3125,1 8.46875,0 2.75,-9.46875 13.65625,0 2.6875,9.46875 8.5,0 -0.3125,-1 -8.1875,0 -2.6875,-9.46875 -13.65625,0 z m 28.75,9.46875 0,1 8.03125,0 0,-1 -8.03125,0 z"
         inkscape:connector-curvature="0"
         id="path3816"
         style="font-size:55.46882629px;font-style:normal;font-variant:normal;font-weight:bold;font-stretch:normal;text-align:start;line-height:125%;writing-mode:lr-tb;text-anchor:start;opacity:0.8;fill:#ffffff;fill-opacity:1;stroke:none;font-family:Droid Sans;-inkscape-font-specification:Abandoned Bitplane Bold" />
      <path
         d="M -61.125,51 -74,91 l 0.3125,0 12.5625,-39 10.25,0 12.625,39 0.3125,0 -12.9375,-40 -10.25,0 z M -30,51.03125 c -0.59444,4.2e-5 -1.176774,0.06115 -1.71875,0.1875 -0.524506,0.126436 -0.97289,0.362529 -1.375,0.6875 -0.384638,0.306997 -0.710221,0.726409 -0.9375,1.25 -0.227286,0.505615 -0.312504,1.16112 -0.3125,1.9375 -10e-7,0.183876 0.02042,0.331418 0.03125,0.5 0.03308,-0.548929 0.107455,-1.050879 0.28125,-1.4375 0.227279,-0.523591 0.552862,-0.943003 0.9375,-1.25 0.40211,-0.324971 0.850494,-0.561064 1.375,-0.6875 0.541976,-0.12635 1.12431,-0.187458 1.71875,-0.1875 0.594424,4.2e-5 1.131742,0.06115 1.65625,0.1875 0.524489,0.126436 0.990357,0.362529 1.375,0.6875 0.402104,0.306997 0.741455,0.726409 0.96875,1.25 0.187292,0.386915 0.274955,0.88804 0.3125,1.4375 0.01224,-0.16817 0.03125,-0.316616 0.03125,-0.5 -1.3e-5,-0.77638 -0.099,-1.431885 -0.34375,-1.9375 -0.227295,-0.523591 -0.566646,-0.943003 -0.96875,-1.25 -0.384643,-0.324971 -0.850511,-0.561064 -1.375,-0.6875 -0.524508,-0.126351 -1.061826,-0.187458 -1.65625,-0.1875 z m -4.03125,12 0,1 8.03125,0 0,-1 -8.03125,0 z m -26.4375,11.40625 c -0.09067,0.333969 -0.19349,0.665408 -0.28125,1 l 9.65625,0 -0.28125,-1 -9.09375,0 z"
         inkscape:connector-curvature="0"
         id="path3829"
         style="font-size:55.46882629px;font-style:normal;font-variant:normal;font-weight:bold;font-stretch:normal;text-align:start;line-height:125%;writing-mode:lr-tb;text-anchor:start;opacity:0.4;fill:#803300;fill-opacity:1;stroke:none;font-family:Droid Sans;-inkscape-font-specification:Abandoned Bitplane Bold" />
      <path
         d="M -61.125,51 -74,91 l 8.46875,0 2.75,-9.46875 13.65625,0 2.6875,9.46875 8.5,0 -12.9375,-40 -10.25,0 z M -30,51.03125 c -0.59444,4.2e-5 -1.176774,0.06115 -1.71875,0.1875 -0.524506,0.126436 -0.97289,0.362529 -1.375,0.6875 -0.384638,0.306997 -0.710221,0.726409 -0.9375,1.25 -0.227286,0.505615 -0.312504,1.16112 -0.3125,1.9375 -4e-6,0.7584 0.08521,1.382655 0.3125,1.90625 0.227279,0.523667 0.552862,0.956272 0.9375,1.28125 0.40211,0.306991 0.850494,0.511835 1.375,0.65625 0.541976,0.126431 1.12431,0.218784 1.71875,0.21875 0.594424,3.4e-5 1.131742,-0.09232 1.65625,-0.21875 0.524489,-0.144415 0.990357,-0.349259 1.375,-0.65625 C -26.566646,57.956272 -26.227295,57.523667 -26,57 c 0.244753,-0.523595 0.343737,-1.14785 0.34375,-1.90625 -1.3e-5,-0.77638 -0.099,-1.431885 -0.34375,-1.9375 -0.227295,-0.523591 -0.566646,-0.943003 -0.96875,-1.25 -0.384643,-0.324971 -0.850511,-0.561064 -1.375,-0.6875 C -28.868258,51.092399 -29.405576,51.031292 -30,51.03125 z M -60.375,52 l 8.75,0 12.28125,38 -6.34375,0 -2.46875,-8.75 A 1.0067741,1.0067741 0 0 0 -49.125,80.53125 l -13.65625,0 A 1.0067741,1.0067741 0 0 0 -63.75,81.25 L -66.28125,90 -72.59375,90 -60.375,52 z M -30,52.03125 c 0.525476,3.7e-5 0.962078,0.04925 1.40625,0.15625 0.378962,0.09136 0.706593,0.278513 0.96875,0.5 a 1.0067741,1.0067741 0 0 0 0.03125,0.03125 c 0.26774,0.204413 0.496502,0.475759 0.65625,0.84375 a 1.0067741,1.0067741 0 0 0 0.03125,0.03125 c 0.14246,0.294301 0.249988,0.809177 0.25,1.5 -1.1e-5,0.670818 -0.09114,1.128901 -0.25,1.46875 a 1.0067741,1.0067741 0 0 0 -0.03125,0.03125 c -0.16221,0.373717 -0.378477,0.681756 -0.65625,0.90625 -0.239379,0.191053 -0.579395,0.349764 -1,0.46875 -0.0105,0.0025 -0.02078,-0.0025 -0.03125,0 -0.46901,0.111599 -0.895581,0.187527 -1.375,0.1875 -0.470029,2.7e-5 -0.964301,-0.08038 -1.4375,-0.1875 -0.415471,-0.114394 -0.721588,-0.262628 -1,-0.46875 -0.01022,-0.0086 -0.02111,-0.02236 -0.03125,-0.03125 -0.249715,-0.219049 -0.463454,-0.502787 -0.625,-0.875 -0.147509,-0.339807 -0.250004,-0.81701 -0.25,-1.5 -4e-6,-0.702713 0.08629,-1.236574 0.21875,-1.53125 a 1.0067741,1.0067741 0 0 0 0.03125,0 c 0.165641,-0.381594 0.373271,-0.674083 0.625,-0.875 0.295382,-0.238717 0.607583,-0.408831 0.96875,-0.5 0.0094,-0.0022 0.0218,0.0022 0.03125,0 0.44925,-0.102162 0.954084,-0.156214 1.46875,-0.15625 z m -25.96875,3.5625 a 1.0067741,1.0067741 0 0 0 -0.1875,0.03125 1.0067741,1.0067741 0 0 0 -0.8125,0.8125 c -1.148016,5.942389 -3.177962,11.756467 -4.75,17.75 a 1.0067741,1.0067741 0 0 0 0.96875,1.25 l 9.65625,0 A 1.0067741,1.0067741 0 0 0 -50.125,74.15625 L -55,56.34375 a 1.0067741,1.0067741 0 0 0 -0.96875,-0.75 z m 0,1.03125 4.875,17.8125 -9.65625,0 c 1.557914,-5.939686 3.614347,-11.772346 4.78125,-17.8125 z m 21.9375,6.40625 0,27.96875 8.03125,0 0,-27.96875 -8.03125,0 z m 1,1 6.03125,0 0,25.96875 -6.03125,0 0,-25.96875 z"
         inkscape:connector-curvature="0"
         id="path3838"
         style="font-size:55.46882629px;font-style:normal;font-variant:normal;font-weight:bold;font-stretch:normal;text-align:start;line-height:125%;writing-mode:lr-tb;text-anchor:start;opacity:0.3;fill:#803300;fill-opacity:1;stroke:none;font-family:Droid Sans;-inkscape-font-specification:Abandoned Bitplane Bold" />
    </g>
    <path
       style="fill:url(#linearGradient10213);fill-opacity:1"
       id="path14523"
       d="M 79.172,120 C 79.172,120 91.086,110.086 96.586,104.586 C 102.086,99.086 112,87.172 112,87.172 C 112,87.172 98.25,96 88,96 C 88,106.25 79.172,120 79.172,120 z"
       sodipodi:nodetypes="csccc" />
  </g>
</svg>
