<?xml version="1.0" encoding="UTF-8" standalone="no"?>
<!-- Created with Inkscape (http://www.inkscape.org/) -->

<svg
   xmlns:dc="http://purl.org/dc/elements/1.1/"
   xmlns:cc="http://creativecommons.org/ns#"
   xmlns:rdf="http://www.w3.org/1999/02/22-rdf-syntax-ns#"
   xmlns:svg="http://www.w3.org/2000/svg"
   xmlns="http://www.w3.org/2000/svg"
   xmlns:xlink="http://www.w3.org/1999/xlink"
   xmlns:sodipodi="http://sodipodi.sourceforge.net/DTD/sodipodi-0.dtd"
   xmlns:inkscape="http://www.inkscape.org/namespaces/inkscape"
   width="128"
   height="128"
   id="svg2606"
   sodipodi:version="0.32"
   inkscape:version="0.48.2 r9819"
   version="1.0"
   sodipodi:docname="blend.svg"
   inkscape:output_extension="org.inkscape.output.svg.inkscape"
   inkscape:export-filename="C:\Users\Joseph\Weblocal\spip-oxygen\png-52\blend.png"
   inkscape:export-xdpi="36.560001"
   inkscape:export-ydpi="36.560001">
  <defs
     id="defs2608">
    <linearGradient
       inkscape:collect="always"
       xlink:href="#XMLID_9_"
       id="linearGradient3894"
       gradientUnits="userSpaceOnUse"
       x1="54.103237"
       y1="32.580181"
       x2="32.584381"
       y2="31.295557"
       gradientTransform="matrix(0.6736273,0,0,0.6880491,42.39699,15.073568)" />
    <radialGradient
       cx="54.212399"
       cy="18.0903"
       r="26.416201"
       id="XMLID_14_"
       gradientUnits="userSpaceOnUse">
      <stop
         style="stop-color:#f0ff80;stop-opacity:1"
         offset="0.33140001"
         id="stop74" />
      <stop
         style="stop-color:#00ff00;stop-opacity:0;"
         offset="0.67438829"
         id="stop3926" />
    </radialGradient>
    <radialGradient
       inkscape:collect="always"
       xlink:href="#XMLID_14_"
       id="radialGradient3885"
       gradientUnits="userSpaceOnUse"
       cx="54.212399"
       cy="18.0903"
       r="26.416201"
       gradientTransform="matrix(0.624346,0,0,0.624346,45.032334,16.880096)" />
    <linearGradient
       id="linearGradient8528">
      <stop
         style="stop-color:#888888;stop-opacity:0.39215687;"
         offset="0"
         id="stop8530" />
      <stop
         id="stop8540"
         offset="0.5"
         style="stop-color:#888888;stop-opacity:1;" />
      <stop
         style="stop-color:#888888;stop-opacity:0.39215687;"
         offset="1"
         id="stop8532" />
    </linearGradient>
    <radialGradient
       gradientUnits="userSpaceOnUse"
       r="65.999802"
       cy="25"
       cx="60"
       id="XMLID_11_">
      <stop
         id="stop7985"
         style="stop-color:#77DE6C"
         offset="0" />
      <stop
         id="stop7987"
         style="stop-color:#0A8000"
         offset="1" />
    </radialGradient>
    <radialGradient
       style="fill-opacity:1.0;fill:url(#linearGradient6728)"
       gradientUnits="userSpaceOnUse"
       r="25.1951"
       cy="100"
       cx="23.7837"
       id="radialGradient4397">
      <stop
         offset="0"
         style="stop-color:#2eb800;stop-opacity:1;"
         id="stop4401" />
      <stop
         id="stop4403"
         style="stop-color:#003a00;stop-opacity:1;"
         offset="1" />
    </radialGradient>
    <linearGradient
       y2="19.9497"
       x2="52.9131"
       y1="8.6162"
       x1="62.2461"
       gradientUnits="userSpaceOnUse"
       id="linearGradient5332">
      <stop
         id="stop5334"
         style="stop-color:#000000;stop-opacity:0;"
         offset="0" />
      <stop
         id="stop5336"
         style="stop-color:#07631a;stop-opacity:1;"
         offset="1" />
    </linearGradient>
    <linearGradient
       id="linearGradient2848">
      <stop
         style="stop-color:#c3ff6a;stop-opacity:1;"
         offset="0"
         id="stop2850" />
      <stop
         style="stop-color:#a6ff88;stop-opacity:0;"
         offset="1"
         id="stop2852" />
    </linearGradient>
    <radialGradient
       gradientUnits="userSpaceOnUse"
       fy="88.667"
       fx="17.1172"
       r="14"
       cy="94"
       cx="19.7837"
       id="radialGradient4531">
      <stop
         id="stop4533"
         style="stop-color:#ffffff;stop-opacity:1;"
         offset="0" />
      <stop
         offset="0.5"
         style="stop-color:#ffffff;stop-opacity:0.70886075;"
         id="stop4537" />
      <stop
         id="stop4535"
         style="stop-color:#ffffff;stop-opacity:0;"
         offset="1" />
    </radialGradient>
    <linearGradient
       id="linearGradient4540">
      <stop
         style="stop-color:#008800;stop-opacity:1;"
         offset="0"
         id="stop4542" />
      <stop
         style="stop-color:#0aa800;stop-opacity:0.60759491;"
         offset="1"
         id="stop4544" />
    </linearGradient>
    <radialGradient
       id="XMLID_10_"
       cx="23.7837"
       cy="100"
       r="25.1951"
       gradientUnits="userSpaceOnUse"
       style="fill-opacity:1.0;fill:url(#linearGradient6728)">
      <stop
         offset="0"
         style="stop-color:#287f00;stop-opacity:1;"
         id="stop35" />
      <stop
         id="stop9094"
         style="stop-color:#3cf000;stop-opacity:1;"
         offset="0.5" />
      <stop
         offset="1"
         style="stop-color:#003a00;stop-opacity:1;"
         id="stop43" />
    </radialGradient>
    <linearGradient
       id="linearGradient4390">
      <stop
         style="stop-color:#00a208;stop-opacity:1;"
         offset="0"
         id="stop4392" />
      <stop
         id="stop4398"
         offset="0.5"
         style="stop-color:#dfffa8;stop-opacity:1;" />
      <stop
         style="stop-color:#8aff47;stop-opacity:0.63291138;"
         offset="1"
         id="stop4394" />
    </linearGradient>
    <linearGradient
       id="XMLID_9_"
       gradientUnits="userSpaceOnUse"
       x1="40.1172"
       y1="49"
       x2="48.1172"
       y2="49">
      <stop
         offset="0"
         style="stop-color:#008e00;stop-opacity:1;"
         id="stop16" />
      <stop
         offset="0.2294"
         style="stop-color:#008700"
         id="stop18" />
      <stop
         offset="0.5127"
         style="stop-color:#007800"
         id="stop20" />
      <stop
         offset="0.8231"
         style="stop-color:#005F00"
         id="stop22" />
      <stop
         offset="1"
         style="stop-color:#004D00"
         id="stop24" />
    </linearGradient>
    <linearGradient
       id="XMLID_13_"
       gradientUnits="userSpaceOnUse"
       x1="62.2461"
       y1="8.6162"
       x2="52.9131"
       y2="19.9497">
      <stop
         offset="0"
         style="stop-color:#000000;stop-opacity:1;"
         id="stop88" />
      <stop
         offset="1"
         style="stop-color:#000000;stop-opacity:0;"
         id="stop104" />
    </linearGradient>
    <linearGradient
       id="linearGradient10207">
      <stop
         style="stop-color:#a2a2a2;stop-opacity:1;"
         offset="0"
         id="stop10209" />
      <stop
         style="stop-color:#ffffff;stop-opacity:1;"
         offset="1"
         id="stop10211" />
    </linearGradient>
    <linearGradient
       id="XMLID_12_"
       gradientUnits="userSpaceOnUse"
       x1="96"
       y1="104"
       x2="88.000198"
       y2="96.000198">
      <stop
         offset="0"
         style="stop-color:#888A85"
         id="stop83" />
      <stop
         offset="0.0072"
         style="stop-color:#8C8E89"
         id="stop85" />
      <stop
         offset="0.0673"
         style="stop-color:#ABACA9"
         id="stop87" />
      <stop
         offset="0.1347"
         style="stop-color:#C5C6C4"
         id="stop89" />
      <stop
         offset="0.2652576"
         style="stop-color:#DBDBDA"
         id="stop91" />
      <stop
         offset="0.37646064"
         style="stop-color:#EBEBEB"
         id="stop93" />
      <stop
         offset="0.48740286"
         style="stop-color:#F7F7F6"
         id="stop95" />
      <stop
         offset="0.6324091"
         style="stop-color:#FDFDFD"
         id="stop97" />
      <stop
         offset="1"
         style="stop-color:#FFFFFF"
         id="stop99" />
    </linearGradient>
    <radialGradient
       id="XMLID_8_"
       cx="102"
       cy="112.3047"
       r="139.55859"
       gradientUnits="userSpaceOnUse">
      <stop
         offset="0"
         style="stop-color:#b7b8b9;stop-opacity:1;"
         id="stop41" />
      <stop
         offset="0.18851049"
         style="stop-color:#ECECEC"
         id="stop47" />
      <stop
         offset="0.25718147"
         style="stop-color:#FAFAFA"
         id="stop49" />
      <stop
         offset="0.30111277"
         style="stop-color:#FFFFFF"
         id="stop51" />
      <stop
         offset="0.5313"
         style="stop-color:#FAFAFA"
         id="stop53" />
      <stop
         offset="0.8449"
         style="stop-color:#EBECEC"
         id="stop55" />
      <stop
         offset="1"
         style="stop-color:#E1E2E3"
         id="stop57" />
    </radialGradient>
    <filter
       inkscape:collect="always"
       x="-0.19200002"
       width="1.3839999"
       y="-0.19199999"
       height="1.3839999"
       id="filter6697">
      <feGaussianBlur
         inkscape:collect="always"
         stdDeviation="1.9447689"
         id="feGaussianBlur6699" />
    </filter>
    <clipPath
       clipPathUnits="userSpaceOnUse"
       id="clipPath7084">
      <path
         style="fill:#000000;fill-opacity:1;fill-rule:evenodd;stroke:none;stroke-width:1px;stroke-linecap:butt;stroke-linejoin:miter;stroke-opacity:1"
         d="M 72,88 L 40,120 L 32,120 L 32,80 L 72,80 L 72,88 z"
         id="path7086" />
    </clipPath>
    <radialGradient
       inkscape:collect="always"
       xlink:href="#XMLID_8_"
       id="radialGradient9437"
       gradientUnits="userSpaceOnUse"
       gradientTransform="matrix(1,0,0,0.9996653,2e-6,3.0160848e-3)"
       cx="102"
       cy="112.3047"
       r="139.55859" />
    <linearGradient
       inkscape:collect="always"
       xlink:href="#linearGradient10207"
       id="linearGradient10213"
       x1="98.617439"
       y1="106.41443"
       x2="91.228737"
       y2="99.254974"
       gradientUnits="userSpaceOnUse" />
    <filter
       inkscape:collect="always"
       id="filter2770">
      <feGaussianBlur
         inkscape:collect="always"
         stdDeviation="2.0786429"
         id="feGaussianBlur2772" />
    </filter>
    <radialGradient
       inkscape:collect="always"
       xlink:href="#XMLID_13_"
       id="radialGradient7858"
       gradientUnits="userSpaceOnUse"
       gradientTransform="matrix(1,0,0,0.2670157,0,81.512404)"
       cx="45.43161"
       cy="111.20621"
       fx="45.43161"
       fy="111.20621"
       r="33.764351" />
    <linearGradient
       inkscape:collect="always"
       xlink:href="#XMLID_9_"
       id="linearGradient7860"
       gradientUnits="userSpaceOnUse"
       x1="40.1172"
       y1="49"
       x2="48.1172"
       y2="49" />
    <linearGradient
       inkscape:collect="always"
       xlink:href="#linearGradient4390"
       id="linearGradient7862"
       gradientUnits="userSpaceOnUse"
       x1="44.142799"
       y1="3.4933131"
       x2="44.142799"
       y2="94.157005" />
    <linearGradient
       inkscape:collect="always"
       xlink:href="#XMLID_13_"
       id="linearGradient7864"
       gradientUnits="userSpaceOnUse"
       gradientTransform="matrix(1,0,0,0.9999508,19.75779,0)"
       x1="44.117001"
       y1="88.249001"
       x2="44.117001"
       y2="83.652809" />
    <linearGradient
       inkscape:collect="always"
       xlink:href="#XMLID_10_"
       id="linearGradient7866"
       gradientUnits="userSpaceOnUse"
       gradientTransform="matrix(1,0,0,0.8419836,19.882588,18.956994)"
       x1="0.1174117"
       y1="101.0003"
       x2="43.927124"
       y2="92.500053" />
    <linearGradient
       inkscape:collect="always"
       xlink:href="#linearGradient4540"
       id="linearGradient7868"
       gradientUnits="userSpaceOnUse"
       x1="3.9885471"
       y1="100.01298"
       x2="43.874181"
       y2="100.01298" />
    <radialGradient
       inkscape:collect="always"
       xlink:href="#radialGradient4531"
       id="radialGradient7870"
       gradientUnits="userSpaceOnUse"
       gradientTransform="matrix(0.6862309,-0.2788753,0.2607269,0.6833644,-6.7420546e-2,33.863485)"
       cx="22.501722"
       cy="91.356857"
       fx="19.835222"
       fy="86.023857"
       r="14" />
    <radialGradient
       inkscape:collect="always"
       xlink:href="#linearGradient2848"
       id="radialGradient7872"
       gradientUnits="userSpaceOnUse"
       gradientTransform="matrix(1,-2.6486575e-2,1.3961697e-2,0.5271235,18.16764,52.58348)"
       cx="27.127048"
       cy="113.89391"
       fx="27.127048"
       fy="113.89391"
       r="11.990002" />
    <linearGradient
       inkscape:collect="always"
       xlink:href="#linearGradient5332"
       id="linearGradient7874"
       gradientUnits="userSpaceOnUse"
       gradientTransform="matrix(1,0,0,-1,39.75779,128)"
       x1="22.025112"
       y1="29.212114"
       x2="21.785669"
       y2="7.9726162" />
    <linearGradient
       inkscape:collect="always"
       xlink:href="#radialGradient4397"
       id="linearGradient7876"
       gradientUnits="userSpaceOnUse"
       gradientTransform="scale(1,0.9999508)"
       x1="92.25"
       y1="8.4984522"
       x2="68"
       y2="15.500762" />
    <linearGradient
       inkscape:collect="always"
       xlink:href="#linearGradient2848"
       id="linearGradient7878"
       gradientUnits="userSpaceOnUse"
       gradientTransform="matrix(0.962555,0,0,0.95911,3.8148459,-0.5857864)"
       x1="80.965881"
       y1="4.8331532"
       x2="76.376823"
       y2="14.051684" />
    <linearGradient
       inkscape:collect="always"
       xlink:href="#linearGradient8528"
       id="linearGradient8534"
       x1="83.806137"
       y1="33.289322"
       x2="83.806137"
       y2="92.312012"
       gradientUnits="userSpaceOnUse" />
    <linearGradient
       inkscape:collect="always"
       xlink:href="#linearGradient8528"
       id="linearGradient8536"
       x1="83.806137"
       y1="33.289322"
       x2="83.806137"
       y2="92.312012"
       gradientUnits="userSpaceOnUse" />
    <linearGradient
       inkscape:collect="always"
       xlink:href="#linearGradient8528"
       id="linearGradient8538"
       x1="83.806137"
       y1="33.289322"
       x2="83.806137"
       y2="92.312012"
       gradientUnits="userSpaceOnUse" />
    <linearGradient
       inkscape:collect="always"
       xlink:href="#linearGradient8528"
       id="linearGradient8559"
       gradientUnits="userSpaceOnUse"
       x1="83.806137"
       y1="33.289322"
       x2="83.806137"
       y2="92.312012" />
    <linearGradient
       inkscape:collect="always"
       xlink:href="#linearGradient8528"
       id="linearGradient8561"
       gradientUnits="userSpaceOnUse"
       x1="83.806137"
       y1="33.289322"
       x2="83.806137"
       y2="92.312012" />
    <linearGradient
       inkscape:collect="always"
       xlink:href="#linearGradient8528"
       id="linearGradient8563"
       gradientUnits="userSpaceOnUse"
       x1="83.806137"
       y1="33.289322"
       x2="83.806137"
       y2="92.312012" />
    <linearGradient
       inkscape:collect="always"
       xlink:href="#linearGradient8528"
       id="linearGradient8565"
       gradientUnits="userSpaceOnUse"
       x1="83.806137"
       y1="33.289322"
       x2="83.806137"
       y2="92.312012" />
    <linearGradient
       inkscape:collect="always"
       xlink:href="#linearGradient8528"
       id="linearGradient8567"
       gradientUnits="userSpaceOnUse"
       x1="83.806137"
       y1="33.289322"
       x2="83.806137"
       y2="92.312012" />
    <linearGradient
       inkscape:collect="always"
       xlink:href="#linearGradient8528"
       id="linearGradient8569"
       gradientUnits="userSpaceOnUse"
       x1="83.806137"
       y1="33.289322"
       x2="83.806137"
       y2="92.312012" />
    <linearGradient
       inkscape:collect="always"
       xlink:href="#linearGradient8528"
       id="linearGradient8603"
       gradientUnits="userSpaceOnUse"
       x1="83.806137"
       y1="33.289322"
       x2="83.806137"
       y2="92.312012" />
    <linearGradient
       inkscape:collect="always"
       xlink:href="#linearGradient8528"
       id="linearGradient8605"
       gradientUnits="userSpaceOnUse"
       x1="83.806137"
       y1="33.289322"
       x2="83.806137"
       y2="92.312012" />
    <linearGradient
       inkscape:collect="always"
       xlink:href="#linearGradient8528"
       id="linearGradient8607"
       gradientUnits="userSpaceOnUse"
       x1="83.806137"
       y1="33.289322"
       x2="83.806137"
       y2="92.312012" />
    <linearGradient
       inkscape:collect="always"
       xlink:href="#linearGradient8528"
       id="linearGradient8609"
       gradientUnits="userSpaceOnUse"
       x1="83.806137"
       y1="33.289322"
       x2="83.806137"
       y2="92.312012" />
    <linearGradient
       inkscape:collect="always"
       xlink:href="#linearGradient8528"
       id="linearGradient8611"
       gradientUnits="userSpaceOnUse"
       x1="83.806137"
       y1="33.289322"
       x2="83.806137"
       y2="92.312012" />
    <linearGradient
       inkscape:collect="always"
       xlink:href="#linearGradient8528"
       id="linearGradient8613"
       gradientUnits="userSpaceOnUse"
       x1="83.806137"
       y1="33.289322"
       x2="83.806137"
       y2="92.312012" />
    <linearGradient
       inkscape:collect="always"
       xlink:href="#XMLID_9_"
       id="linearGradient9414"
       gradientUnits="userSpaceOnUse"
       x1="40.1172"
       y1="49"
       x2="48.1172"
       y2="49" />
    <linearGradient
       inkscape:collect="always"
       xlink:href="#linearGradient4390"
       id="linearGradient9416"
       gradientUnits="userSpaceOnUse"
       x1="44.142799"
       y1="3.4933131"
       x2="44.142799"
       y2="94.157005" />
    <linearGradient
       inkscape:collect="always"
       xlink:href="#XMLID_13_"
       id="linearGradient9418"
       gradientUnits="userSpaceOnUse"
       gradientTransform="matrix(1,0,0,0.9999508,19.75779,0)"
       x1="44.117001"
       y1="88.249001"
       x2="44.117001"
       y2="83.652809" />
    <linearGradient
       inkscape:collect="always"
       xlink:href="#XMLID_10_"
       id="linearGradient9420"
       gradientUnits="userSpaceOnUse"
       gradientTransform="matrix(1,0,0,0.8419836,19.882588,18.956994)"
       x1="0.1174117"
       y1="101.0003"
       x2="43.927124"
       y2="92.500053" />
    <linearGradient
       inkscape:collect="always"
       xlink:href="#linearGradient4540"
       id="linearGradient9422"
       gradientUnits="userSpaceOnUse"
       x1="3.9885471"
       y1="100.01298"
       x2="43.874181"
       y2="100.01298" />
    <radialGradient
       inkscape:collect="always"
       xlink:href="#radialGradient4531"
       id="radialGradient9424"
       gradientUnits="userSpaceOnUse"
       gradientTransform="matrix(0.6862309,-0.2788753,0.2607269,0.6833644,-6.7420546e-2,33.863485)"
       cx="22.501722"
       cy="91.356857"
       fx="19.835222"
       fy="86.023857"
       r="14" />
    <radialGradient
       inkscape:collect="always"
       xlink:href="#linearGradient2848"
       id="radialGradient9426"
       gradientUnits="userSpaceOnUse"
       gradientTransform="matrix(1,-2.6486575e-2,1.3961697e-2,0.5271235,18.16764,52.58348)"
       cx="27.127048"
       cy="113.89391"
       fx="27.127048"
       fy="113.89391"
       r="11.990002" />
    <linearGradient
       inkscape:collect="always"
       xlink:href="#linearGradient5332"
       id="linearGradient9428"
       gradientUnits="userSpaceOnUse"
       gradientTransform="matrix(1,0,0,-1,39.75779,128)"
       x1="22.025112"
       y1="29.212114"
       x2="21.785669"
       y2="7.9726162" />
    <linearGradient
       inkscape:collect="always"
       xlink:href="#radialGradient4397"
       id="linearGradient9430"
       gradientUnits="userSpaceOnUse"
       gradientTransform="scale(1,0.9999508)"
       x1="92.25"
       y1="8.4984522"
       x2="68"
       y2="15.500762" />
    <linearGradient
       inkscape:collect="always"
       xlink:href="#radialGradient4397"
       id="linearGradient9433"
       gradientUnits="userSpaceOnUse"
       gradientTransform="matrix(0.64,0,0,0.6451296,24.32,20.000001)"
       x1="92.25"
       y1="8.4984522"
       x2="68"
       y2="15.500762" />
    <linearGradient
       inkscape:collect="always"
       xlink:href="#XMLID_10_"
       id="linearGradient9440"
       gradientUnits="userSpaceOnUse"
       gradientTransform="matrix(0.6433337,0,0,0.5432152,37.044465,32.23032)"
       x1="0.1174117"
       y1="101.0003"
       x2="43.927124"
       y2="92.500053" />
    <linearGradient
       inkscape:collect="always"
       xlink:href="#XMLID_13_"
       id="linearGradient9443"
       gradientUnits="userSpaceOnUse"
       gradientTransform="matrix(0.64,0,0,0.6451296,36.964986,20.000001)"
       x1="44.117001"
       y1="88.249001"
       x2="44.117001"
       y2="83.652809" />
    <linearGradient
       inkscape:collect="always"
       xlink:href="#XMLID_9_"
       id="linearGradient9447"
       gradientUnits="userSpaceOnUse"
       x1="40.1172"
       y1="49"
       x2="48.1172"
       y2="49"
       gradientTransform="matrix(0.64,0,0,0.6451296,37.04512,20.000001)" />
    <radialGradient
       inkscape:collect="always"
       xlink:href="#XMLID_13_"
       id="radialGradient10249"
       gradientUnits="userSpaceOnUse"
       gradientTransform="matrix(1,0,0,0.2670157,0,81.512404)"
       cx="45.43161"
       cy="111.20621"
       fx="45.43161"
       fy="111.20621"
       r="33.764351" />
    <linearGradient
       inkscape:collect="always"
       xlink:href="#linearGradient4390"
       id="linearGradient10253"
       gradientUnits="userSpaceOnUse"
       x1="44.142799"
       y1="3.4933131"
       x2="44.142799"
       y2="94.157005" />
    <linearGradient
       inkscape:collect="always"
       xlink:href="#XMLID_13_"
       id="linearGradient3910"
       gradientUnits="userSpaceOnUse"
       gradientTransform="matrix(0.4999999,0,0,0.5990894,43.9415,23.614063)"
       x1="44.117001"
       y1="88.249001"
       x2="44.117001"
       y2="83.652809" />
    <linearGradient
       inkscape:collect="always"
       xlink:href="#XMLID_9_"
       id="linearGradient3914"
       gradientUnits="userSpaceOnUse"
       gradientTransform="matrix(0.4848485,0,0,0.6314195,44.549334,20.000001)"
       x1="40.1172"
       y1="49"
       x2="48.1172"
       y2="49" />
    <linearGradient
       inkscape:collect="always"
       xlink:href="#XMLID_10_"
       id="linearGradient4914"
       gradientUnits="userSpaceOnUse"
       gradientTransform="matrix(0.6433337,0,0,0.5432152,37.044465,32.23032)"
       x1="0.1174117"
       y1="101.0003"
       x2="43.927124"
       y2="92.500053" />
    <linearGradient
       inkscape:collect="always"
       xlink:href="#linearGradient4540"
       id="linearGradient4916"
       gradientUnits="userSpaceOnUse"
       x1="3.9885471"
       y1="100.01298"
       x2="43.874181"
       y2="100.01298" />
    <radialGradient
       inkscape:collect="always"
       xlink:href="#radialGradient4531"
       id="radialGradient4918"
       gradientUnits="userSpaceOnUse"
       gradientTransform="matrix(0.6862309,-0.2788753,0.2607269,0.6833644,-0.06742055,33.863485)"
       cx="22.501722"
       cy="91.356857"
       fx="19.835222"
       fy="86.023857"
       r="14" />
    <radialGradient
       inkscape:collect="always"
       xlink:href="#linearGradient2848"
       id="radialGradient4920"
       gradientUnits="userSpaceOnUse"
       gradientTransform="matrix(1,-0.02648657,0.0139617,0.5271235,18.16764,52.58348)"
       cx="27.127048"
       cy="113.89391"
       fx="27.127048"
       fy="113.89391"
       r="11.990002" />
    <linearGradient
       inkscape:collect="always"
       xlink:href="#linearGradient5332"
       id="linearGradient4922"
       gradientUnits="userSpaceOnUse"
       gradientTransform="matrix(1,0,0,-1,39.75779,128)"
       x1="22.025112"
       y1="29.212114"
       x2="21.785669"
       y2="7.9726162" />
    <radialGradient
       gradientTransform="matrix(0.901746,0.00739379,-0.00120184,0.329372,2.127997,26.71591)"
       id="radialGradient6774"
       gradientUnits="userSpaceOnUse"
       xlink:show="other"
       xlink:type="simple"
       r="17.02107"
       cx="21.148216"
       fx="21.148216"
       cy="41.692692"
       fy="41.692692"
       xlink:actuate="onLoad">
      <stop
         stop-opacity="1"
         stop-color="#000000"
         offset="0"
         id="stop70" />
      <stop
         stop-opacity="0"
         stop-color="#000000"
         offset="1"
         id="stop72" />
    </radialGradient>
    <linearGradient
       x1="10.071428"
       y1="12.857143"
       x2="36.714283"
       gradientUnits="userSpaceOnUse"
       y2="33.642857"
       xlink:type="simple"
       xlink:actuate="onLoad"
       id="linearGradient6748"
       xlink:show="other">
      <stop
         stop-opacity="1"
         stop-color="#3675d1"
         offset="0"
         id="stop55-8" />
      <stop
         stop-opacity="1"
         stop-color="#25579f"
         offset="1"
         id="stop57-6" />
    </linearGradient>
    <linearGradient
       x1="34.915569"
       y1="32.966518"
       x2="11.013001"
       gradientUnits="userSpaceOnUse"
       y2="8.8236609"
       xlink:type="simple"
       xlink:actuate="onLoad"
       id="linearGradient6756"
       xlink:show="other">
      <stop
         stop-opacity="0.72941178"
         stop-color="#FFFFFF"
         offset="0"
         id="stop60" />
      <stop
         stop-opacity="1"
         stop-color="#FFFFFF"
         offset="1"
         id="stop62" />
    </linearGradient>
    <linearGradient
       gradientTransform="translate(-3.410666,0.141595)"
       id="linearGradient6760"
       gradientUnits="userSpaceOnUse"
       xlink:show="other"
       xlink:type="simple"
       x1="20"
       y1="21.001263"
       y2="21.001263"
       x2="35.964085"
       xlink:actuate="onLoad">
      <stop
         stop-opacity="1"
         stop-color="#bdcce1"
         offset="0"
         id="stop65" />
      <stop
         stop-opacity="0"
         stop-color="#bdcce1"
         offset="1"
         id="stop67" />
    </linearGradient>
    <linearGradient
       x1="46.882267"
       y1="75.753494"
       x2="46.882267"
       y2="35.372066"
       id="linearGradient3827"
       xlink:href="#linearGradient3821"
       gradientUnits="userSpaceOnUse"
       gradientTransform="translate(-4,0)" />
    <linearGradient
       id="linearGradient3821">
      <stop
         id="stop3823"
         style="stop-color:#de6a07;stop-opacity:1"
         offset="0" />
      <stop
         id="stop3825"
         style="stop-color:#f8a425;stop-opacity:1"
         offset="1" />
    </linearGradient>
    <radialGradient
       gradientUnits="userSpaceOnUse"
       r="108.4526"
       cy="120"
       cx="113"
       id="XMLID_15_">
      <stop
         id="stop4177"
         style="stop-color:#BABDB6"
         offset="0" />
      <stop
         id="stop4179"
         style="stop-color:#888A85"
         offset="1" />
    </radialGradient>
    <radialGradient
       gradientUnits="userSpaceOnUse"
       r="108.4525"
       cy="120"
       cx="113"
       id="XMLID_16_">
      <stop
         id="stop4184"
         style="stop-color:#BABDB6"
         offset="0" />
      <stop
         id="stop4186"
         style="stop-color:#888A85"
         offset="1" />
    </radialGradient>
    <radialGradient
       gradientUnits="userSpaceOnUse"
       r="108.4529"
       cy="120"
       cx="113"
       id="XMLID_17_">
      <stop
         id="stop4191"
         style="stop-color:#BABDB6"
         offset="0" />
      <stop
         id="stop4193"
         style="stop-color:#888A85"
         offset="1" />
    </radialGradient>
    <radialGradient
       gradientUnits="userSpaceOnUse"
       r="108.4526"
       cy="120"
       cx="113"
       id="XMLID_18_">
      <stop
         id="stop4198"
         style="stop-color:#BABDB6"
         offset="0" />
      <stop
         id="stop4200"
         style="stop-color:#888A85"
         offset="1" />
    </radialGradient>
    <radialGradient
       gradientUnits="userSpaceOnUse"
       r="108.4526"
       cy="120"
       cx="113"
       id="XMLID_19_">
      <stop
         id="stop4205"
         style="stop-color:#BABDB6"
         offset="0" />
      <stop
         id="stop4207"
         style="stop-color:#888A85"
         offset="1" />
    </radialGradient>
    <radialGradient
       gradientUnits="userSpaceOnUse"
       r="108.4526"
       cy="120"
       cx="113"
       id="XMLID_20_">
      <stop
         id="stop4212"
         style="stop-color:#BABDB6"
         offset="0" />
      <stop
         id="stop4214"
         style="stop-color:#888A85"
         offset="1" />
    </radialGradient>
    <radialGradient
       gradientUnits="userSpaceOnUse"
       r="108.4527"
       cy="120"
       cx="113"
       id="XMLID_21_">
      <stop
         id="stop4219"
         style="stop-color:#BABDB6"
         offset="0" />
      <stop
         id="stop4221"
         style="stop-color:#888A85"
         offset="1" />
    </radialGradient>
    <radialGradient
       gradientUnits="userSpaceOnUse"
       r="108.4528"
       cy="120"
       cx="113"
       id="XMLID_22_">
      <stop
         id="stop4226"
         style="stop-color:#BABDB6"
         offset="0" />
      <stop
         id="stop4228"
         style="stop-color:#888A85"
         offset="1" />
    </radialGradient>
    <radialGradient
       gradientUnits="userSpaceOnUse"
       r="108.4528"
       cy="120"
       cx="113"
       id="XMLID_23_">
      <stop
         id="stop4233"
         style="stop-color:#BABDB6"
         offset="0" />
      <stop
         id="stop4235"
         style="stop-color:#888A85"
         offset="1" />
    </radialGradient>
    <radialGradient
       gradientUnits="userSpaceOnUse"
       r="108.4527"
       cy="120"
       cx="113"
       id="XMLID_24_">
      <stop
         id="stop4240"
         style="stop-color:#BABDB6"
         offset="0" />
      <stop
         id="stop4242"
         style="stop-color:#888A85"
         offset="1" />
    </radialGradient>
    <radialGradient
       inkscape:collect="always"
       xlink:href="#linearGradient35488"
       id="radialGradient35494"
       cx="28.019106"
       cy="38.98439"
       fx="28.019106"
       fy="38.98439"
       r="15.467961"
       gradientTransform="matrix(1,0,0,0.342857,0,25.61831)"
       gradientUnits="userSpaceOnUse" />
    <linearGradient
       inkscape:collect="always"
       id="linearGradient35488">
      <stop
         style="stop-color:black;stop-opacity:1;"
         offset="0"
         id="stop35490" />
      <stop
         style="stop-color:black;stop-opacity:0;"
         offset="1"
         id="stop35492" />
    </linearGradient>
    <linearGradient
       inkscape:collect="always"
       xlink:href="#linearGradient39155"
       id="linearGradient39161"
       x1="31.1875"
       y1="18.875"
       x2="29.875"
       y2="34.375"
       gradientUnits="userSpaceOnUse" />
    <linearGradient
       id="linearGradient39155">
      <stop
         style="stop-color:white;stop-opacity:1;"
         offset="0"
         id="stop39157" />
      <stop
         style="stop-color:#dadada;stop-opacity:1;"
         offset="1"
         id="stop39159" />
    </linearGradient>
    <linearGradient
       inkscape:collect="always"
       xlink:href="#linearGradient3564"
       id="linearGradient34576"
       gradientUnits="userSpaceOnUse"
       x1="185.9903"
       y1="193.33229"
       x2="190.46461"
       y2="-458.05771"
       gradientTransform="matrix(0.06818845,0,0,0.06818845,22.51112,27.02885)" />
    <linearGradient
       inkscape:collect="always"
       id="linearGradient3564">
      <stop
         style="stop-color:white;stop-opacity:1;"
         offset="0"
         id="stop3566" />
      <stop
         style="stop-color:white;stop-opacity:0;"
         offset="1"
         id="stop3568" />
    </linearGradient>
    <radialGradient
       inkscape:collect="always"
       xlink:href="#linearGradient39171"
       id="radialGradient39177"
       cx="26.109201"
       cy="19.668886"
       fx="26.109201"
       fy="19.668886"
       r="20.278975"
       gradientTransform="matrix(1.647222,0,0,1.26792,-15.47413,-5.79794)"
       gradientUnits="userSpaceOnUse" />
    <linearGradient
       inkscape:collect="always"
       id="linearGradient39171">
      <stop
         style="stop-color:white;stop-opacity:1;"
         offset="0"
         id="stop39173" />
      <stop
         style="stop-color:white;stop-opacity:0;"
         offset="1"
         id="stop39175" />
    </linearGradient>
    <radialGradient
       r="20.278975"
       fy="19.668886"
       fx="26.109201"
       cy="19.668886"
       cx="26.109201"
       gradientTransform="matrix(1.647222,0,0,1.26792,-15.47413,-5.79794)"
       gradientUnits="userSpaceOnUse"
       id="radialGradient17100"
       xlink:href="#linearGradient39171"
       inkscape:collect="always" />
  </defs>
  <sodipodi:namedview
     id="base"
     pagecolor="#ffffff"
     bordercolor="#666666"
     borderopacity="1.0"
     inkscape:pageopacity="0.0"
     inkscape:pageshadow="2"
     inkscape:zoom="2.8284271"
     inkscape:cx="-9.6684093"
     inkscape:cy="60.344296"
     inkscape:document-units="px"
     inkscape:current-layer="layer1"
     width="128px"
     height="128px"
     showgrid="true"
     inkscape:grid-points="true"
     showguides="true"
     inkscape:guide-bbox="true"
     inkscape:window-width="1235"
     inkscape:window-height="692"
     inkscape:window-x="0"
     inkscape:window-y="0"
     inkscape:window-maximized="0">
    <inkscape:grid
       id="GridFromPre046Settings"
       type="xygrid"
       originx="0px"
       originy="0px"
       spacingx="4px"
       spacingy="4px"
       color="#0000ff"
       empcolor="#0000ff"
       opacity="0.2"
       empopacity="0.4"
       empspacing="2" />
  </sodipodi:namedview>
  <metadata
     id="metadata2611">
    <rdf:RDF>
      <cc:Work
         rdf:about="">
        <dc:format>image/svg+xml</dc:format>
        <dc:type
           rdf:resource="http://purl.org/dc/dcmitype/StillImage" />
        <dc:title></dc:title>
      </cc:Work>
    </rdf:RDF>
  </metadata>
  <g
     inkscape:label="Livello 1"
     inkscape:groupmode="layer"
     id="layer1">
    <path
       style="opacity:0.5;fill:#000000;fill-opacity:1;filter:url(#filter2770)"
       d="M 16,8 L 16,120 C 16,120 79.15625,120 79.15625,120 L 79.1875,120 C 79.187503,120 91.09375,110.09375 96.59375,104.59375 C 102.09375,99.09375 112,87.1875 112,87.1875 L 112,87.15625 L 112,8 L 16,8 z"
       id="path7865"
       sodipodi:nodetypes="csccscccc"
       transform="matrix(1.0416667,0,0,1.0267857,-2.6666667,-1.2142891)" />
    <path
       style="fill:#ffffff;fill-opacity:1"
       d="M 16.000001,8 L 16,120 C 16,120 79.146418,120 79.146418,120 L 112,87.14642 L 112,8 L 16.000001,8 z"
       id="path34"
       sodipodi:nodetypes="cccccc" />
    <path
       style="fill:url(#radialGradient9437);fill-opacity:1"
       d="M 18.000002,9.0000034 C 17.449002,9.0000034 17.000002,9.4488534 17.000002,9.9996684 L 17.000002,117.96352 C 17.000002,118.51533 17.449002,118.96318 18.000002,118.96318 L 77.171999,118.96318 C 77.434999,118.96318 79.934679,119.08131 80.12068,118.89438 L 110.707,88.094202 C 110.894,87.907264 111,85.40942 111,85.146508 L 111,9.9996684 C 111,9.4488534 110.552,9.0000034 110,9.0000034 L 18.000002,9.0000034 z"
       id="path59"
       sodipodi:nodetypes="ccccccccccc" />
    <path
       d="M 41.879531,115.98249 C 41.879531,115.98249 66.18914,91.672876 66.18914,91.672876 C 66.18914,91.672876 56.836,94.586 46.586,94.586 C 46.586,104.836 41.879531,115.98249 41.879531,115.98249 z"
       id="path5540"
       style="opacity:0.4;fill:#000000;fill-opacity:1;filter:url(#filter6697)"
       sodipodi:nodetypes="cccc"
       clip-path="url(#clipPath7084)"
       transform="translate(40,0)" />
    <text
       xml:space="preserve"
       style="font-size:40px;font-style:normal;font-weight:normal;text-align:center;line-height:125%;letter-spacing:0px;word-spacing:0px;text-anchor:middle;fill:#666666;fill-opacity:1;stroke:none;font-family:Sans"
       x="64"
       y="32"
       id="text9950"
       sodipodi:linespacing="125%"
       inkscape:export-filename="C:\Users\Joseph\Weblocal\spip-oxygen\png-128\ram.png"
       inkscape:export-xdpi="90"
       inkscape:export-ydpi="90"><tspan
         sodipodi:role="line"
         id="tspan9952"
         x="64"
         y="32"
         style="font-size:24px;font-style:normal;font-variant:normal;font-weight:bold;font-stretch:normal;fill:#666666;font-family:Liberation Sans Narrow;-inkscape-font-specification:Liberation Sans Narrow Bold">BLEND</tspan></text>
    <g
       transform="matrix(1.4941741,0,0,1.4941741,26.768766,43.122158)"
       id="g17059">
      <path
         transform="matrix(1.274286,0,0,1.377124,-7.569123,-16.70193)"
         d="m 43.487067,38.98439 c 0,2.928932 -6.925242,5.303301 -15.467961,5.303301 -8.542719,0 -15.467961,-2.374369 -15.467961,-5.303301 0,-2.928932 6.925242,-5.303301 15.467961,-5.303301 8.542719,0 15.467961,2.374369 15.467961,5.303301 z"
         sodipodi:ry="5.3033009"
         sodipodi:rx="15.467961"
         sodipodi:cy="38.98439"
         sodipodi:cx="28.019106"
         id="path35486"
         style="opacity:0.54857142;color:#000000;fill:url(#radialGradient35494);fill-opacity:1;fill-rule:nonzero;stroke:none;stroke-width:1;marker:none;visibility:visible;display:inline;overflow:visible;enable-background:accumulate"
         sodipodi:type="arc" />
      <path
         inkscape:connector-curvature="0"
         sodipodi:nodetypes="csssssssssscccsscccscccssccc"
         d="m 16.048489,28.093447 c 0.0098,0.576682 0.196474,1.697902 0.471116,2.577425 0.581566,1.854137 1.56684,3.572658 2.939126,5.086496 1.407488,1.553118 3.138519,2.803227 5.139315,3.68976 2.105357,0.931573 4.384795,1.407488 6.750134,1.403741 2.365339,-0.005 4.644601,-0.488686 6.74896,-1.427017 2.00002,-0.895288 3.731043,-2.148391 5.13754,-3.705517 1.369207,-1.519844 2.352576,-3.241114 2.934089,-5.096258 0.294262,-0.938353 0.476921,-1.889392 0.553238,-2.845308 0.07331,-0.939306 0.04204,-1.883511 -0.09183,-2.823792 -0.259981,-1.835599 -0.896294,-3.556847 -1.872652,-5.12758 -0.895541,-1.441699 -2.047808,-2.70454 -3.417268,-3.766975 0,0 0.002,-0.002 0.002,-0.002 0,0 -13.828458,-10.6197195 -13.828458,-10.6197195 -0.01176,-0.00978 -0.02252,-0.019551 -0.03529,-0.028344 -0.909003,-0.6959264 -2.434775,-0.6939758 -3.431728,0.00488 -1.01067,0.7057021 -1.091821,1.8092613 -0.195527,2.5482146 1.899775,1.4997633 3.792068,3.0680399 5.702368,4.5676189 0,0 -17.551681,-0.01171 -17.551681,-0.01171 -1.994685,0 -3.1682604,0.947915 -3.4153942,2.333683 -0.2180771,1.222836 0.7479213,2.738129 2.4800212,2.738129 2.956573,0.0039 5.942111,-0.0069 8.909215,-0.01272 0,0 -15.901723,11.764162 -15.901723,11.764162 -0.020527,0.01564 -0.041053,0.02933 -0.06158,0.04497 -1.4974197,1.148389 -1.9831951,3.059322 -1.0399808,4.268393 0.9598323,1.22959 2.9977653,1.230588 4.5147288,0.006 0,0 8.677593,-7.102098 8.677593,-7.102098 0,0 -0.12511,0.959824 -0.116333,1.535532 z"
         id="path2482"
         style="fill:#f57900;fill-rule:evenodd;stroke:#ce5c00;stroke-width:1;stroke-linecap:butt;stroke-linejoin:miter;stroke-miterlimit:4;stroke-dasharray:none" />
      <path
         transform="matrix(0.821621,0,0,0.839506,5.875686,3.882724)"
         d="m 42.75,25.75 c 0,5.591883 -5.176708,10.125 -11.5625,10.125 -6.385792,0 -11.5625,-4.533117 -11.5625,-10.125 0,-5.591883 5.176708,-10.125 11.5625,-10.125 6.385792,0 11.5625,4.533117 11.5625,10.125 z"
         sodipodi:ry="10.125"
         sodipodi:rx="11.5625"
         sodipodi:cy="25.75"
         sodipodi:cx="31.1875"
         id="path39153"
         style="color:#000000;fill:url(#linearGradient39161);fill-opacity:1;fill-rule:nonzero;stroke:none;stroke-width:1;marker:none;visibility:visible;display:inline;overflow:visible;enable-background:accumulate"
         sodipodi:type="arc" />
      <path
         inkscape:connector-curvature="0"
         sodipodi:nodetypes="cssssscscczccsccssssccscccccscssc"
         id="path3562"
         d="m 25.796988,6.0267804 c -0.404852,5.53e-4 -0.818619,0.1256944 -1.095272,0.3196267 -7.14e-4,7.142e-4 -0.0014,0.00143 -0.0021,0.00213 -0.280209,0.1956525 -0.336859,0.3680061 -0.345206,0.4602725 -0.0083,0.092266 -0.01324,0.1672776 0.189655,0.3345475 0.01899,0.015735 0.03747,0.032076 0.0554,0.049009 0.124258,0.1010285 5.704394,4.6389489 5.704394,4.6389489 0.373658,0.304091 0.51584,0.810232 0.355197,1.264415 -0.160635,0.454191 -0.589422,0.382732 -1.071174,0.384283 -5.634142,0.05114 -17.60967,0.01918 -17.60967,0.01918 -0.952967,6.38e-4 -2.3472795,0.516793 -2.4135719,1.585761 -0.063562,1.024947 0.9093059,1.457499 1.5782589,1.457499 0,0 8.830403,-0.01705 8.830403,-0.01705 0.488364,-5.91e-4 0.922857,0.221532 1.080466,0.683755 0.15761,0.462231 0.0033,0.53156 -0.383664,0.829439 0,0 -15.9006939,12.205735 -15.9006939,12.205735 -0.00142,0.0014 -0.00284,0.0028 -0.00426,0.0043 -0.064038,0.04879 -0.084772,0.06226 -0.061795,0.04476 -0.5536756,0.424618 -0.8961097,0.98072 -1.0185711,1.476701 -0.1224537,0.495981 -0.04659,0.882548 0.1875202,1.182646 0.4788333,0.613413 1.7693735,0.732111 2.8980115,-0.178996 0,0 8.6727243,-7.09799 8.6727243,-7.09799 0.361955,-0.295752 0.867758,-0.340606 1.276111,-0.113169 0.408345,0.227437 0.636512,0.681082 0.575631,1.144518 0,0 -0.112502,0.980045 -0.10655,1.370159 0.192357,2.636407 1.448328,4.914995 3.115366,6.91474 2.877746,3.172809 6.84939,4.556285 11.042271,4.719919 4.20342,-0.04394 8.185784,-1.662428 11.042264,-4.758277 5.218918,-6.385867 3.941737,-13.3639 -1.747326,-17.993227 C 36.14442,13.301598 31.42752,9.8792062 26.81986,6.3400589 c -0.0043,-0.00352 -0.0086,-0.00707 -0.01279,-0.010651 -0.0072,-0.00489 -0.01427,-0.00987 -0.02131,-0.014921 -0.210578,-0.1612288 -0.584681,-0.288267 -0.988772,-0.2877065 z"
         style="opacity:0.4857143;fill:none;stroke:url(#linearGradient34576);stroke-width:1;stroke-linecap:butt;stroke-linejoin:miter;stroke-miterlimit:4;stroke-opacity:1;stroke-dasharray:none" />
      <path
         inkscape:connector-curvature="0"
         d="m 26.007076,24.754048 c 0.07447,-1.361157 0.739293,-2.562655 1.738705,-3.413271 0.983518,-0.836183 2.304215,-1.346747 3.746876,-1.346747 1.441743,0 2.762441,0.510564 3.745729,1.346747 1.000515,0.850616 1.664539,2.051213 1.739875,3.41237 0.07718,1.400852 -0.4828,2.701576 -1.46425,3.66495 -1.000516,0.981409 -2.427099,1.597503 -4.021354,1.597503 -1.595172,0 -3.021756,-0.616094 -4.022225,-1.597503 -0.982461,-0.963374 -1.540507,-2.264098 -1.463356,-3.664049 z"
         id="path2478"
         style="fill:#3465a4;fill-rule:evenodd;stroke:none" />
      <path
         inkscape:connector-curvature="0"
         sodipodi:nodetypes="csssscsccsscsccssssscsscccsssc"
         id="path39166"
         d="m 25.8125,6.03125 c -0.404852,5.528e-4 -0.848347,0.1185677 -1.125,0.3125 -0.280209,0.1956523 -0.335403,0.3764836 -0.34375,0.46875 -0.0083,0.092267 -0.01539,0.1764801 0.1875,0.34375 0.01899,0.015735 0.04457,0.014317 0.0625,0.03125 0.124258,0.1010283 5.71875,4.65625 5.71875,4.65625 0.373658,0.304091 0.504393,0.795817 0.34375,1.25 -0.160635,0.454191 -0.580748,0.373449 -1.0625,0.375 -5.634142,0.05114 -17.625,0.03125 -17.625,0.03125 -0.952967,6.38e-4 -2.3399576,0.524782 -2.40625,1.59375 -0.063562,1.024947 0.924797,1.4375 1.59375,1.4375 0,-1e-6 8.8125,0 8.8125,0 0.488364,-5.92e-4 0.936141,0.225277 1.09375,0.6875 0.157609,0.462231 -0.01926,0.514621 -0.40625,0.8125 0,0 -15.875,12.21875 -15.875,12.21875 -0.00142,0.0014 -0.029829,-0.0014 -0.03125,0 -0.064037,0.04879 -0.054226,0.04875 -0.03125,0.03125 -0.5536758,0.424619 -0.9087886,1.004019 -1.03125,1.5 -0.1224536,0.495981 -0.04661,0.856152 0.1875,1.15625 0.4788333,0.613413 1.777612,0.754857 2.90625,-0.15625 1e-7,10e-7 8.65625,-7.09375 8.65625,-7.09375 0.361955,-0.295753 0.872897,-0.352437 1.28125,-0.125 0.408345,0.227436 0.623381,0.692814 0.5625,1.15625 0,-1e-6 -0.0997,0.953636 -0.09375,1.34375 0.09498,1.301756 0.451616,2.521825 0.989039,3.664234 C 20.799917,36.321089 27.770982,19.392853 44.1875,21.03125 43.339652,19.54368 42.151282,18.185293 40.65625,16.96875 36.159865,13.309932 31.42016,9.8828973 26.8125,6.34375 26.805335,6.3388584 26.788292,6.317553 26.78125,6.3125 26.570707,6.1513121 26.216591,6.0306895 25.8125,6.03125 z"
         style="opacity:0.51999996;fill:url(#radialGradient17100);fill-opacity:1;fill-rule:evenodd;stroke:none" />
    </g>
    <path
       style="fill:url(#linearGradient10213);fill-opacity:1"
       id="path14523"
       d="M 79.172,120 C 79.172,120 91.086,110.086 96.586,104.586 C 102.086,99.086 112,87.172 112,87.172 C 112,87.172 98.25,96 88,96 C 88,106.25 79.172,120 79.172,120 z"
       sodipodi:nodetypes="csccc" />
  </g>
</svg>
