<?xml version="1.0" encoding="UTF-8" standalone="no"?>
<!-- Created with Inkscape (http://www.inkscape.org/) -->

<svg
   xmlns:dc="http://purl.org/dc/elements/1.1/"
   xmlns:cc="http://creativecommons.org/ns#"
   xmlns:rdf="http://www.w3.org/1999/02/22-rdf-syntax-ns#"
   xmlns:svg="http://www.w3.org/2000/svg"
   xmlns="http://www.w3.org/2000/svg"
   xmlns:xlink="http://www.w3.org/1999/xlink"
   xmlns:sodipodi="http://sodipodi.sourceforge.net/DTD/sodipodi-0.dtd"
   xmlns:inkscape="http://www.inkscape.org/namespaces/inkscape"
   version="1.0"
   width="128"
   height="128"
   id="svg2606"
   inkscape:version="0.48.2 r9819"
   sodipodi:docname="csv.svg"
   inkscape:export-filename="C:\Users\Joseph\Weblocal\spip-oxygen\png-52\csv.png"
   inkscape:export-xdpi="36.5625"
   inkscape:export-ydpi="36.5625">
  <metadata
     id="metadata6306">
    <rdf:RDF>
      <cc:Work
         rdf:about="">
        <dc:format>image/svg+xml</dc:format>
        <dc:type
           rdf:resource="http://purl.org/dc/dcmitype/StillImage" />
        <dc:title></dc:title>
      </cc:Work>
    </rdf:RDF>
  </metadata>
  <sodipodi:namedview
     pagecolor="#ffffff"
     bordercolor="#666666"
     borderopacity="1"
     objecttolerance="10"
     gridtolerance="10"
     guidetolerance="10"
     inkscape:pageopacity="0"
     inkscape:pageshadow="2"
     inkscape:window-width="1366"
     inkscape:window-height="716"
     id="namedview6304"
     showgrid="false"
     inkscape:zoom="1.84375"
     inkscape:cx="64"
     inkscape:cy="64"
     inkscape:window-x="-8"
     inkscape:window-y="-8"
     inkscape:window-maximized="1"
     inkscape:current-layer="svg2606" />
  <defs
     id="defs2608">
    <linearGradient
       x1="154.1006"
       y1="79.100601"
       x2="151.9005"
       y2="76.900497"
       id="XMLID_68_"
       gradientUnits="userSpaceOnUse"
       gradientTransform="translate(-143,-64)">
      <stop
         style="stop-color:#bbbbbb;stop-opacity:1"
         offset="0"
         id="stop291" />
      <stop
         style="stop-color:#616161;stop-opacity:1"
         offset="1"
         id="stop293" />
    </linearGradient>
    <linearGradient
       x1="154.1006"
       y1="79.100601"
       x2="151.9005"
       y2="76.900497"
       id="linearGradient10028"
       xlink:href="#XMLID_68_"
       gradientUnits="userSpaceOnUse"
       gradientTransform="translate(-143,-64)" />
    <linearGradient
       x1="153"
       y1="79.556602"
       x2="153"
       y2="76.444199"
       id="XMLID_67_"
       gradientUnits="userSpaceOnUse"
       gradientTransform="translate(-143,-64)">
      <stop
         style="stop-color:#ffffff;stop-opacity:1"
         offset="0"
         id="stop284" />
      <stop
         style="stop-color:#dddddd;stop-opacity:1"
         offset="1"
         id="stop286" />
    </linearGradient>
    <linearGradient
       x1="153"
       y1="79.556602"
       x2="153"
       y2="76.444199"
       id="linearGradient10026"
       xlink:href="#XMLID_67_"
       gradientUnits="userSpaceOnUse"
       gradientTransform="translate(-143,-64)" />
    <linearGradient
       x1="154.1006"
       y1="87.100601"
       x2="151.9005"
       y2="84.900497"
       id="XMLID_66_"
       gradientUnits="userSpaceOnUse"
       gradientTransform="translate(-143,-64)">
      <stop
         style="stop-color:#bbbbbb;stop-opacity:1"
         offset="0"
         id="stop275" />
      <stop
         style="stop-color:#616161;stop-opacity:1"
         offset="1"
         id="stop277" />
    </linearGradient>
    <linearGradient
       x1="154.1006"
       y1="87.100601"
       x2="151.9005"
       y2="84.900497"
       id="linearGradient10024"
       xlink:href="#XMLID_66_"
       gradientUnits="userSpaceOnUse"
       gradientTransform="translate(-143,-64)" />
    <linearGradient
       x1="153"
       y1="87.556602"
       x2="153"
       y2="84.444199"
       id="XMLID_65_"
       gradientUnits="userSpaceOnUse"
       gradientTransform="translate(-143,-64)">
      <stop
         style="stop-color:#ffffff;stop-opacity:1"
         offset="0"
         id="stop268" />
      <stop
         style="stop-color:#dddddd;stop-opacity:1"
         offset="1"
         id="stop270" />
    </linearGradient>
    <linearGradient
       x1="153"
       y1="87.556602"
       x2="153"
       y2="84.444199"
       id="linearGradient10022"
       xlink:href="#XMLID_65_"
       gradientUnits="userSpaceOnUse"
       gradientTransform="translate(-143,-64)" />
    <linearGradient
       x1="154.1006"
       y1="95.100601"
       x2="151.9005"
       y2="92.900497"
       id="XMLID_64_"
       gradientUnits="userSpaceOnUse"
       gradientTransform="translate(-143,-64)">
      <stop
         style="stop-color:#bbbbbb;stop-opacity:1"
         offset="0"
         id="stop259" />
      <stop
         style="stop-color:#616161;stop-opacity:1"
         offset="1"
         id="stop261" />
    </linearGradient>
    <linearGradient
       x1="154.1006"
       y1="95.100601"
       x2="151.9005"
       y2="92.900497"
       id="linearGradient10020"
       xlink:href="#XMLID_64_"
       gradientUnits="userSpaceOnUse"
       gradientTransform="translate(-143,-64)" />
    <linearGradient
       x1="153"
       y1="95.556602"
       x2="153"
       y2="92.444199"
       id="XMLID_63_"
       gradientUnits="userSpaceOnUse"
       gradientTransform="translate(-143,-64)">
      <stop
         style="stop-color:#ffffff;stop-opacity:1"
         offset="0"
         id="stop252" />
      <stop
         style="stop-color:#dddddd;stop-opacity:1"
         offset="1"
         id="stop254" />
    </linearGradient>
    <linearGradient
       x1="153"
       y1="95.556602"
       x2="153"
       y2="92.444199"
       id="linearGradient10018"
       xlink:href="#XMLID_63_"
       gradientUnits="userSpaceOnUse"
       gradientTransform="translate(-143,-64)" />
    <linearGradient
       x1="154.1006"
       y1="103.1006"
       x2="151.9005"
       y2="100.9005"
       id="XMLID_62_"
       gradientUnits="userSpaceOnUse"
       gradientTransform="translate(-143,-64)">
      <stop
         style="stop-color:#bbbbbb;stop-opacity:1"
         offset="0"
         id="stop243" />
      <stop
         style="stop-color:#616161;stop-opacity:1"
         offset="1"
         id="stop245" />
    </linearGradient>
    <linearGradient
       x1="154.1006"
       y1="103.1006"
       x2="151.9005"
       y2="100.9005"
       id="linearGradient10016"
       xlink:href="#XMLID_62_"
       gradientUnits="userSpaceOnUse"
       gradientTransform="translate(-143,-64)" />
    <linearGradient
       x1="153"
       y1="103.5566"
       x2="153"
       y2="100.4442"
       id="XMLID_61_"
       gradientUnits="userSpaceOnUse"
       gradientTransform="translate(-143,-64)">
      <stop
         style="stop-color:#ffffff;stop-opacity:1"
         offset="0"
         id="stop236" />
      <stop
         style="stop-color:#dddddd;stop-opacity:1"
         offset="1"
         id="stop238" />
    </linearGradient>
    <linearGradient
       x1="153"
       y1="103.5566"
       x2="153"
       y2="100.4442"
       id="linearGradient10014"
       xlink:href="#XMLID_61_"
       gradientUnits="userSpaceOnUse"
       gradientTransform="translate(-143,-64)" />
    <linearGradient
       x1="154.1006"
       y1="111.1006"
       x2="151.9005"
       y2="108.9005"
       id="XMLID_60_"
       gradientUnits="userSpaceOnUse"
       gradientTransform="translate(-143,-64)">
      <stop
         style="stop-color:#bbbbbb;stop-opacity:1"
         offset="0"
         id="stop227" />
      <stop
         style="stop-color:#616161;stop-opacity:1"
         offset="1"
         id="stop229" />
    </linearGradient>
    <linearGradient
       x1="154.1006"
       y1="111.1006"
       x2="151.9005"
       y2="108.9005"
       id="linearGradient10012"
       xlink:href="#XMLID_60_"
       gradientUnits="userSpaceOnUse"
       gradientTransform="translate(-143,-64)" />
    <linearGradient
       x1="153"
       y1="111.5566"
       x2="153"
       y2="108.4442"
       id="XMLID_59_"
       gradientUnits="userSpaceOnUse"
       gradientTransform="translate(-143,-64)">
      <stop
         style="stop-color:#ffffff;stop-opacity:1"
         offset="0"
         id="stop220" />
      <stop
         style="stop-color:#dddddd;stop-opacity:1"
         offset="1"
         id="stop222" />
    </linearGradient>
    <linearGradient
       x1="153"
       y1="111.5566"
       x2="153"
       y2="108.4442"
       id="linearGradient10010"
       xlink:href="#XMLID_59_"
       gradientUnits="userSpaceOnUse"
       gradientTransform="translate(-143,-64)" />
    <linearGradient
       x1="154.1006"
       y1="119.1006"
       x2="151.9005"
       y2="116.9005"
       id="XMLID_58_"
       gradientUnits="userSpaceOnUse"
       gradientTransform="translate(-143,-64)">
      <stop
         style="stop-color:#bbbbbb;stop-opacity:1"
         offset="0"
         id="stop211" />
      <stop
         style="stop-color:#616161;stop-opacity:1"
         offset="1"
         id="stop213" />
    </linearGradient>
    <linearGradient
       x1="154.1006"
       y1="119.1006"
       x2="151.9005"
       y2="116.9005"
       id="linearGradient10008"
       xlink:href="#XMLID_58_"
       gradientUnits="userSpaceOnUse"
       gradientTransform="translate(-143,-64)" />
    <linearGradient
       x1="153"
       y1="119.5566"
       x2="153"
       y2="116.4442"
       id="XMLID_57_"
       gradientUnits="userSpaceOnUse"
       gradientTransform="translate(-143,-64)">
      <stop
         style="stop-color:#ffffff;stop-opacity:1"
         offset="0"
         id="stop204" />
      <stop
         style="stop-color:#dddddd;stop-opacity:1"
         offset="1"
         id="stop206" />
    </linearGradient>
    <linearGradient
       x1="153"
       y1="119.5566"
       x2="153"
       y2="116.4442"
       id="linearGradient10006"
       xlink:href="#XMLID_57_"
       gradientUnits="userSpaceOnUse"
       gradientTransform="translate(-143,-64)" />
    <linearGradient
       x1="154.1006"
       y1="127.1006"
       x2="151.9005"
       y2="124.9005"
       id="XMLID_56_"
       gradientUnits="userSpaceOnUse"
       gradientTransform="translate(-143,-64)">
      <stop
         style="stop-color:#bbbbbb;stop-opacity:1"
         offset="0"
         id="stop195" />
      <stop
         style="stop-color:#616161;stop-opacity:1"
         offset="1"
         id="stop197" />
    </linearGradient>
    <linearGradient
       x1="154.1006"
       y1="127.1006"
       x2="151.9005"
       y2="124.9005"
       id="linearGradient10004"
       xlink:href="#XMLID_56_"
       gradientUnits="userSpaceOnUse"
       gradientTransform="translate(-143,-64)" />
    <linearGradient
       x1="153"
       y1="127.5566"
       x2="153"
       y2="124.4442"
       id="XMLID_55_"
       gradientUnits="userSpaceOnUse"
       gradientTransform="translate(-143,-64)">
      <stop
         style="stop-color:#ffffff;stop-opacity:1"
         offset="0"
         id="stop188" />
      <stop
         style="stop-color:#dddddd;stop-opacity:1"
         offset="1"
         id="stop190" />
    </linearGradient>
    <linearGradient
       x1="153"
       y1="127.5566"
       x2="153"
       y2="124.4442"
       id="linearGradient10002"
       xlink:href="#XMLID_55_"
       gradientUnits="userSpaceOnUse"
       gradientTransform="translate(-143,-64)" />
    <linearGradient
       x1="154.1006"
       y1="135.1006"
       x2="151.9005"
       y2="132.9005"
       id="XMLID_54_"
       gradientUnits="userSpaceOnUse"
       gradientTransform="translate(-143,-64)">
      <stop
         style="stop-color:#bbbbbb;stop-opacity:1"
         offset="0"
         id="stop179" />
      <stop
         style="stop-color:#616161;stop-opacity:1"
         offset="1"
         id="stop181" />
    </linearGradient>
    <linearGradient
       x1="154.1006"
       y1="135.1006"
       x2="151.9005"
       y2="132.9005"
       id="linearGradient10000"
       xlink:href="#XMLID_54_"
       gradientUnits="userSpaceOnUse"
       gradientTransform="translate(-143,-64)" />
    <linearGradient
       x1="153"
       y1="135.55659"
       x2="153"
       y2="132.4442"
       id="XMLID_53_"
       gradientUnits="userSpaceOnUse"
       gradientTransform="translate(-143,-64)">
      <stop
         style="stop-color:#ffffff;stop-opacity:1"
         offset="0"
         id="stop172" />
      <stop
         style="stop-color:#dddddd;stop-opacity:1"
         offset="1"
         id="stop174" />
    </linearGradient>
    <linearGradient
       x1="153"
       y1="135.55659"
       x2="153"
       y2="132.4442"
       id="linearGradient9998"
       xlink:href="#XMLID_53_"
       gradientUnits="userSpaceOnUse"
       gradientTransform="translate(-143,-64)" />
    <linearGradient
       x1="154.1006"
       y1="143.1006"
       x2="151.9005"
       y2="140.9005"
       id="XMLID_52_"
       gradientUnits="userSpaceOnUse"
       gradientTransform="translate(-143,-64)">
      <stop
         style="stop-color:#bbbbbb;stop-opacity:1"
         offset="0"
         id="stop163" />
      <stop
         style="stop-color:#616161;stop-opacity:1"
         offset="1"
         id="stop165" />
    </linearGradient>
    <linearGradient
       x1="154.1006"
       y1="143.1006"
       x2="151.9005"
       y2="140.9005"
       id="linearGradient9996"
       xlink:href="#XMLID_52_"
       gradientUnits="userSpaceOnUse"
       gradientTransform="translate(-143,-64)" />
    <linearGradient
       x1="153"
       y1="143.55659"
       x2="153"
       y2="140.4442"
       id="XMLID_51_"
       gradientUnits="userSpaceOnUse"
       gradientTransform="translate(-143,-64)">
      <stop
         style="stop-color:#ffffff;stop-opacity:1"
         offset="0"
         id="stop156" />
      <stop
         style="stop-color:#dddddd;stop-opacity:1"
         offset="1"
         id="stop158" />
    </linearGradient>
    <linearGradient
       x1="153"
       y1="143.55659"
       x2="153"
       y2="140.4442"
       id="linearGradient9994"
       xlink:href="#XMLID_51_"
       gradientUnits="userSpaceOnUse"
       gradientTransform="translate(-143,-64)" />
    <linearGradient
       x1="154.1006"
       y1="151.1006"
       x2="151.9005"
       y2="148.9005"
       id="XMLID_50_"
       gradientUnits="userSpaceOnUse"
       gradientTransform="translate(-143,-64)">
      <stop
         style="stop-color:#bbbbbb;stop-opacity:1"
         offset="0"
         id="stop147" />
      <stop
         style="stop-color:#616161;stop-opacity:1"
         offset="1"
         id="stop149" />
    </linearGradient>
    <linearGradient
       x1="154.1006"
       y1="151.1006"
       x2="151.9005"
       y2="148.9005"
       id="linearGradient9992"
       xlink:href="#XMLID_50_"
       gradientUnits="userSpaceOnUse"
       gradientTransform="translate(-143,-64)" />
    <linearGradient
       x1="153"
       y1="151.55659"
       x2="153"
       y2="148.4442"
       id="XMLID_49_"
       gradientUnits="userSpaceOnUse"
       gradientTransform="translate(-143,-64)">
      <stop
         style="stop-color:#ffffff;stop-opacity:1"
         offset="0"
         id="stop140" />
      <stop
         style="stop-color:#dddddd;stop-opacity:1"
         offset="1"
         id="stop142" />
    </linearGradient>
    <linearGradient
       x1="153"
       y1="151.55659"
       x2="153"
       y2="148.4442"
       id="linearGradient9990"
       xlink:href="#XMLID_49_"
       gradientUnits="userSpaceOnUse"
       gradientTransform="translate(-143,-64)" />
    <linearGradient
       x1="154.1006"
       y1="159.1006"
       x2="151.9005"
       y2="156.9005"
       id="XMLID_48_"
       gradientUnits="userSpaceOnUse"
       gradientTransform="translate(-143,-64)">
      <stop
         style="stop-color:#bbbbbb;stop-opacity:1"
         offset="0"
         id="stop131" />
      <stop
         style="stop-color:#616161;stop-opacity:1"
         offset="1"
         id="stop133" />
    </linearGradient>
    <linearGradient
       x1="154.1006"
       y1="159.1006"
       x2="151.9005"
       y2="156.9005"
       id="linearGradient9988"
       xlink:href="#XMLID_48_"
       gradientUnits="userSpaceOnUse"
       gradientTransform="translate(-143,-64)" />
    <linearGradient
       x1="153"
       y1="159.55659"
       x2="153"
       y2="156.4442"
       id="XMLID_47_"
       gradientUnits="userSpaceOnUse"
       gradientTransform="translate(-143,-64)">
      <stop
         style="stop-color:#ffffff;stop-opacity:1"
         offset="0"
         id="stop124" />
      <stop
         style="stop-color:#dddddd;stop-opacity:1"
         offset="1"
         id="stop126" />
    </linearGradient>
    <linearGradient
       x1="153"
       y1="159.55659"
       x2="153"
       y2="156.4442"
       id="linearGradient9986"
       xlink:href="#XMLID_47_"
       gradientUnits="userSpaceOnUse"
       gradientTransform="translate(-143,-64)" />
    <linearGradient
       x1="154.1006"
       y1="167.1006"
       x2="151.9005"
       y2="164.9005"
       id="XMLID_46_"
       gradientUnits="userSpaceOnUse"
       gradientTransform="translate(-143,-64)">
      <stop
         style="stop-color:#bbbbbb;stop-opacity:1"
         offset="0"
         id="stop115" />
      <stop
         style="stop-color:#616161;stop-opacity:1"
         offset="1"
         id="stop117" />
    </linearGradient>
    <linearGradient
       x1="154.1006"
       y1="167.1006"
       x2="151.9005"
       y2="164.9005"
       id="linearGradient9984"
       xlink:href="#XMLID_46_"
       gradientUnits="userSpaceOnUse"
       gradientTransform="translate(-143,-64)" />
    <linearGradient
       x1="153"
       y1="167.55659"
       x2="153"
       y2="164.4442"
       id="XMLID_45_"
       gradientUnits="userSpaceOnUse"
       gradientTransform="translate(-143,-64)">
      <stop
         style="stop-color:#ffffff;stop-opacity:1"
         offset="0"
         id="stop108" />
      <stop
         style="stop-color:#dddddd;stop-opacity:1"
         offset="1"
         id="stop110" />
    </linearGradient>
    <linearGradient
       x1="153"
       y1="167.55659"
       x2="153"
       y2="164.4442"
       id="linearGradient9982"
       xlink:href="#XMLID_45_"
       gradientUnits="userSpaceOnUse"
       gradientTransform="translate(-143,-64)" />
    <linearGradient
       x1="154.1006"
       y1="175.1006"
       x2="151.9005"
       y2="172.9005"
       id="XMLID_44_"
       gradientUnits="userSpaceOnUse"
       gradientTransform="translate(-143,-64)">
      <stop
         style="stop-color:#bbbbbb;stop-opacity:1"
         offset="0"
         id="stop9739" />
      <stop
         style="stop-color:#616161;stop-opacity:1"
         offset="1"
         id="stop101" />
    </linearGradient>
    <linearGradient
       x1="154.1006"
       y1="175.1006"
       x2="151.9005"
       y2="172.9005"
       id="linearGradient9980"
       xlink:href="#XMLID_44_"
       gradientUnits="userSpaceOnUse"
       gradientTransform="translate(-143,-64)" />
    <linearGradient
       x1="153"
       y1="175.55659"
       x2="153"
       y2="172.4442"
       id="XMLID_43_"
       gradientUnits="userSpaceOnUse"
       gradientTransform="translate(-143,-64)">
      <stop
         style="stop-color:#ffffff;stop-opacity:1"
         offset="0"
         id="stop92" />
      <stop
         style="stop-color:#dddddd;stop-opacity:1"
         offset="1"
         id="stop94" />
    </linearGradient>
    <linearGradient
       x1="153"
       y1="175.55659"
       x2="153"
       y2="172.4442"
       id="linearGradient9978"
       xlink:href="#XMLID_43_"
       gradientUnits="userSpaceOnUse"
       gradientTransform="translate(-143,-64)" />
    <linearGradient
       id="linearGradient3206">
      <stop
         style="stop-color:#000000;stop-opacity:1"
         offset="0"
         id="stop2466" />
      <stop
         style="stop-color:#000000;stop-opacity:0"
         offset="1"
         id="stop2468" />
    </linearGradient>
    <linearGradient
       id="linearGradient10207">
      <stop
         style="stop-color:#a2a2a2;stop-opacity:1"
         offset="0"
         id="stop10209" />
      <stop
         style="stop-color:#ffffff;stop-opacity:1"
         offset="1"
         id="stop10211" />
    </linearGradient>
    <radialGradient
       cx="102"
       cy="112.3047"
       r="139.55859"
       id="XMLID_8_"
       gradientUnits="userSpaceOnUse">
      <stop
         style="stop-color:#b7b8b9;stop-opacity:1"
         offset="0"
         id="stop41" />
      <stop
         style="stop-color:#ececec;stop-opacity:1"
         offset="0.18851049"
         id="stop47" />
      <stop
         style="stop-color:#fafafa;stop-opacity:1"
         offset="0.25718147"
         id="stop49" />
      <stop
         style="stop-color:#ffffff;stop-opacity:1"
         offset="0.30111277"
         id="stop51" />
      <stop
         style="stop-color:#fafafa;stop-opacity:1"
         offset="0.53130001"
         id="stop53" />
      <stop
         style="stop-color:#ebecec;stop-opacity:1"
         offset="0.84490001"
         id="stop55" />
      <stop
         style="stop-color:#e1e2e3;stop-opacity:1"
         offset="1"
         id="stop57" />
    </radialGradient>
    <filter
       id="filter6697"
       height="1.3839999"
       y="-0.19199999"
       width="1.3839999"
       x="-0.19200002">
      <feGaussianBlur
         id="feGaussianBlur6699"
         stdDeviation="1.9447689"
         inkscape:collect="always" />
    </filter>
    <clipPath
       id="clipPath7084">
      <path
         d="M 72,88 L 40,120 L 32,120 L 32,80 L 72,80 L 72,88 z "
         style="fill:#000000;fill-opacity:1;fill-rule:evenodd;stroke:none;stroke-width:1px;stroke-linecap:butt;stroke-linejoin:miter;stroke-opacity:1"
         id="path7086" />
    </clipPath>
    <radialGradient
       cx="102"
       cy="112.3047"
       r="139.55859"
       id="radialGradient9437"
       xlink:href="#XMLID_8_"
       gradientUnits="userSpaceOnUse"
       gradientTransform="matrix(1,0,0,0.9996653,2e-6,3.0160848e-3)" />
    <linearGradient
       x1="98.617439"
       y1="106.41443"
       x2="91.228737"
       y2="99.254974"
       id="linearGradient10213"
       xlink:href="#linearGradient10207"
       gradientUnits="userSpaceOnUse" />
    <filter
       id="filter2770">
      <feGaussianBlur
         id="feGaussianBlur2772"
         stdDeviation="2.0786429"
         inkscape:collect="always" />
    </filter>
    <linearGradient
       x1="99.934952"
       y1="62.782482"
       x2="110.38672"
       y2="62.643799"
       id="linearGradient2510"
       xlink:href="#linearGradient3206"
       gradientUnits="userSpaceOnUse"
       gradientTransform="matrix(12.055018,0,0,10.959107,-219.39985,-94.635467)" />
    <linearGradient
       x1="99.934952"
       y1="62.782482"
       x2="110.38672"
       y2="62.643799"
       id="linearGradient8420"
       xlink:href="#linearGradient3206"
       gradientUnits="userSpaceOnUse"
       gradientTransform="matrix(10.419713,0,0,10.419713,-179.7824,-92.865909)" />
    <linearGradient
       x1="99.934952"
       y1="62.782482"
       x2="110.38672"
       y2="62.643799"
       id="linearGradient8422"
       xlink:href="#linearGradient3206"
       gradientUnits="userSpaceOnUse"
       gradientTransform="matrix(10.419713,0,0,10.419713,-179.7824,-92.865909)" />
    <linearGradient
       x1="99.934952"
       y1="62.782482"
       x2="110.38672"
       y2="62.643799"
       id="linearGradient2574"
       xlink:href="#linearGradient3206"
       gradientUnits="userSpaceOnUse"
       gradientTransform="matrix(10.419713,0,0,10.419713,-179.7824,-92.865909)" />
    <linearGradient
       x1="99.934952"
       y1="62.782482"
       x2="110.38672"
       y2="62.643799"
       id="linearGradient2577"
       xlink:href="#linearGradient3206"
       gradientUnits="userSpaceOnUse"
       gradientTransform="matrix(12.055018,0,0,10.959107,-219.39985,-94.635467)" />
    <linearGradient
       x1="99.934952"
       y1="62.782482"
       x2="110.38672"
       y2="62.643799"
       id="linearGradient2580"
       xlink:href="#linearGradient3206"
       gradientUnits="userSpaceOnUse"
       gradientTransform="matrix(10.419713,0,0,10.419713,-179.7824,-92.865909)" />
    <radialGradient
       cx="102"
       cy="112.3047"
       r="139.55859"
       id="radialGradient2583"
       xlink:href="#XMLID_8_"
       gradientUnits="userSpaceOnUse"
       gradientTransform="matrix(1,0,0,0.9996653,2e-6,3.0160848e-3)" />
    <linearGradient
       x1="99.934952"
       y1="62.782482"
       x2="110.38672"
       y2="62.643799"
       id="linearGradient2595"
       xlink:href="#linearGradient3206"
       gradientUnits="userSpaceOnUse"
       gradientTransform="matrix(10.419713,0,0,10.419713,-179.88428,-92.865909)" />
    <linearGradient
       x1="99.934952"
       y1="62.782482"
       x2="110.38672"
       y2="62.643799"
       id="linearGradient2597"
       xlink:href="#linearGradient3206"
       gradientUnits="userSpaceOnUse"
       gradientTransform="matrix(10.419713,0,0,10.419713,-179.33883,-92.865909)" />
  </defs>
  <path
     d="M 16,8 L 16,120 C 16,120 79.15625,120 79.15625,120 L 79.1875,120 C 79.187503,120 91.09375,110.09375 96.59375,104.59375 C 102.09375,99.09375 112,87.1875 112,87.1875 L 112,87.15625 L 112,8 L 16,8 z "
     transform="matrix(1.0416667,0,0,1.0267857,-2.6666667,-1.2142891)"
     style="opacity:0.5;fill:#000000;fill-opacity:1;filter:url(#filter2770)"
     id="path7865" />
  <path
     d="M 16.000001,8 L 16,120 C 16,120 79.146418,120 79.146418,120 L 112,87.14642 L 112,8 L 16.000001,8 z "
     style="fill:#ffffff;fill-opacity:1"
     id="path34" />
  <path
     d="M 18.000002,9.0000034 C 17.449002,9.0000034 17.000002,9.4488534 17.000002,9.9996684 L 17.000002,117.96352 C 17.000002,118.51533 17.449002,118.96318 18.000002,118.96318 L 77.171999,118.96318 C 77.434999,118.96318 79.934679,119.08131 80.12068,118.89438 L 110.707,88.094202 C 110.894,87.907264 111,85.40942 111,85.146508 L 111,9.9996684 C 111,9.4488534 110.552,9.0000034 110,9.0000034 L 18.000002,9.0000034 z "
     style="fill:url(#radialGradient2583);fill-opacity:1"
     id="path59" />
  <path
     d="m 42.341693,84.884012 c -1.8e-5,1.84953 -0.266476,3.636363 -0.799373,5.360502 -0.501585,1.755481 -1.332305,3.369899 -2.492163,4.84326 -1.128541,1.473345 -2.601893,2.805632 -4.420063,3.996866 C 32.811903,100.27585 30.601874,101.24764 28,102 l 0,-3.62069 c 2.852658,-0.909101 4.937295,-2.021953 6.253918,-3.338558 1.347951,-1.316621 2.021932,-2.836996 2.021944,-4.561128 -1.2e-5,-0.564267 -0.156752,-1.050159 -0.47022,-1.457681 -0.31349,-0.376177 -0.70534,-0.721004 -1.175548,-1.034482 -0.470229,-0.282133 -0.98747,-0.564264 -1.551724,-0.846395 -0.532924,-0.282132 -1.034491,-0.611285 -1.504703,-0.987461 -0.470226,-0.407522 -0.862075,-0.893415 -1.175548,-1.457681 -0.313486,-0.595608 -0.470225,-1.332284 -0.47022,-2.210031 -5e-6,-1.692784 0.53291,-2.978049 1.598747,-3.855799 1.065822,-0.909082 2.429457,-1.363627 4.090909,-1.363637 0.87773,1e-5 1.724125,0.172424 2.539185,0.517242 0.815032,0.313488 1.52036,0.799381 2.115987,1.45768 0.626943,0.626966 1.12851,1.426339 1.504702,2.398119 0.376158,0.940444 0.564246,2.021947 0.564264,3.244514"
     style="font-size:96.30094147000001200px;font-style:normal;font-variant:normal;font-weight:normal;font-stretch:normal;text-align:center;line-height:100%;writing-mode:lr-tb;text-anchor:middle;opacity:0.50000000000000000;fill:#008000;fill-opacity:1;stroke:none;font-family:Liberation Serif"
     id="path2499"
     inkscape:connector-curvature="0" />
  <path
     d="m 69.367296,46.487264 c -2.937715,4.7e-5 -5.668336,0.196118 -8.207065,0.558751 -2.502495,0.329754 -4.945811,0.721694 -7.303205,1.183237 l 0,10.123254 3.036976,0 1.880033,-5.784716 c 1.341893,-0.692344 2.886788,-1.247591 4.663927,-1.676253 1.777102,-0.428576 3.537676,-0.657309 5.278554,-0.657355 1.523222,4.5e-5 2.780695,0.228673 3.796221,0.690222 1.015468,0.461633 1.805876,1.114969 2.386194,1.939195 0.616522,0.824308 1.083809,1.804157 1.337717,2.958094 0.253843,1.121042 0.361508,2.39505 0.361545,3.779786 l 0,7.263763 -7.66475,0.197207 c -1.740878,0.033 -3.501566,0.09822 -5.2424,0.230074 -1.704605,0.131909 -3.321354,0.393304 -4.880854,0.755957 -1.523262,0.362704 -2.960485,0.885392 -4.302383,1.544782 -1.30565,0.626468 -2.455451,1.443007 -3.434675,2.465078 -0.979237,1.022114 -1.733719,2.296019 -2.277732,3.812654 -0.544021,1.4837 -0.795404,3.247533 -0.795399,5.291701 -3e-6,1.978255 0.215562,3.807301 0.650781,5.521775 0.435209,1.681513 1.153762,3.151386 2.169268,4.404273 1.015492,1.219919 2.344821,2.199971 4.013148,2.892358 C 56.537771,94.673485 58.621696,95 61.087921,95 c 2.103513,-10e-7 4.007797,-0.195969 5.712408,-0.591619 1.74083,-0.395649 3.285948,-0.88568 4.591619,-1.446179 1.305612,-0.593472 2.383328,-1.214045 3.290057,-1.873459 0.942931,-0.659412 1.697531,-1.214559 2.241578,-1.709121 l 1.048479,4.634347 14.027938,0 0,-2.235004 -6.363189,-1.216106 0,-31.421528 c -4e-5,-2.472768 -0.431288,-4.49779 -1.265406,-6.113393 C 83.573473,51.379443 82.45971,50.072877 81.009039,49.11668 79.55829,48.160575 77.833644,47.474578 75.838948,47.078882 73.84419,46.68328 71.68841,46.48731 69.367296,46.487264 z m 7.230897,23.829088 0,16.532457 c -1.813423,0.791304 -3.609814,1.444533 -5.423173,1.972062 -1.777148,0.494566 -3.896998,0.755958 -6.363188,0.755957 -5.186313,6e-6 -7.809379,-2.907086 -7.809367,-8.709942 -1.2e-5,-2.044171 0.251483,-3.742778 0.759244,-5.061627 0.507735,-1.31881 1.298374,-2.364087 2.313886,-3.122432 1.015482,-0.758306 2.272841,-1.28089 3.832375,-1.57765 1.559495,-0.329684 3.427962,-0.525655 5.56779,-0.591619 l 7.122433,-0.197206 z"
     style="font-size:96.30094147000001200px;font-style:normal;font-variant:normal;font-weight:normal;font-stretch:normal;text-align:center;line-height:100%;writing-mode:lr-tb;text-anchor:middle;opacity:0.50000000000000000;fill:#008000;fill-opacity:1;stroke:none;font-family:Liberation Serif"
     id="path2497"
     inkscape:connector-curvature="0" />
  <path
     d="m 108.34169,84.884012 c -2e-5,1.84953 -0.26647,3.636363 -0.79937,5.360502 -0.50159,1.755481 -1.33231,3.369899 -2.49217,4.84326 -1.12854,1.473345 -2.60189,2.805632 -4.42006,3.996866 C 98.811904,100.27585 96.601874,101.24764 94,102 l 0,-3.62069 c 2.852658,-0.909101 4.937295,-2.021953 6.25392,-3.338558 1.34795,-1.316621 2.02193,-2.836996 2.02194,-4.561128 -10e-6,-0.564267 -0.15675,-1.050159 -0.47022,-1.457681 -0.31349,-0.376177 -0.70534,-0.721004 -1.17555,-1.034482 -0.47023,-0.282133 -0.987468,-0.564264 -1.55172,-0.846395 -0.532924,-0.282132 -1.034491,-0.611285 -1.504702,-0.987461 -0.470227,-0.407522 -0.862076,-0.893415 -1.175549,-1.457681 -0.313485,-0.595608 -0.470225,-1.332284 -0.47022,-2.210031 -5e-6,-1.692784 0.53291,-2.978049 1.598747,-3.855799 1.065822,-0.909082 2.429456,-1.363627 4.090904,-1.363637 0.87773,1e-5 1.72413,0.172424 2.53919,0.517242 0.81503,0.313488 1.52036,0.799381 2.11599,1.45768 0.62694,0.626966 1.1285,1.426339 1.5047,2.398119 0.37616,0.940444 0.56424,2.021947 0.56426,3.244514"
     style="font-size:96.30094147000001200px;font-style:normal;font-variant:normal;font-weight:normal;font-stretch:normal;text-align:center;line-height:100%;writing-mode:lr-tb;text-anchor:middle;opacity:0.50000000000000000;fill:#008000;fill-opacity:1;stroke:none;font-family:Liberation Serif"
     id="text2489"
     inkscape:connector-curvature="0" />
  <g
     id="g2499">
    <path
       d="M 41.879531,115.98249 C 41.879531,115.98249 66.18914,91.672876 66.18914,91.672876 C 66.18914,91.672876 56.836,94.586 46.586,94.586 C 46.586,104.836 41.879531,115.98249 41.879531,115.98249 z "
       transform="translate(40,0)"
       style="opacity:0.4;fill:#000000;fill-opacity:1;filter:url(#filter6697)"
       clip-path="url(#clipPath7084)"
       id="path5540" />
    <path
       d="M 79.172,120 C 79.172,120 91.086,110.086 96.586,104.586 C 102.086,99.086 112,87.172 112,87.172 C 112,87.172 98.25,96 88,96 C 88,106.25 79.172,120 79.172,120 z "
       style="fill:url(#linearGradient10213);fill-opacity:1"
       id="path14523" />
  </g>
  <g
     transform="translate(12,4)"
     id="g281">
    <linearGradient
       x1="153"
       y1="79.556602"
       x2="153"
       y2="76.444199"
       id="linearGradient6048"
       gradientUnits="userSpaceOnUse"
       gradientTransform="translate(-143,-64)">
      <stop
         style="stop-color:#ffffff;stop-opacity:1"
         offset="0"
         id="stop6050" />
      <stop
         style="stop-color:#dddddd;stop-opacity:1"
         offset="1"
         id="stop6052" />
    </linearGradient>
    <circle
       cx="10"
       cy="14"
       r="2"
       style="fill:url(#linearGradient10026)"
       id="circle288"
       d="m 12,14 c 0,1.104569 -0.895431,2 -2,2 -1.1045695,0 -2,-0.895431 -2,-2 0,-1.104569 0.8954305,-2 2,-2 1.104569,0 2,0.895431 2,2 z" />
    <linearGradient
       x1="154.1006"
       y1="79.100601"
       x2="151.9005"
       y2="76.900497"
       id="linearGradient6055"
       gradientUnits="userSpaceOnUse"
       gradientTransform="translate(-143,-64)">
      <stop
         style="stop-color:#bbbbbb;stop-opacity:1"
         offset="0"
         id="stop6057" />
      <stop
         style="stop-color:#616161;stop-opacity:1"
         offset="1"
         id="stop6059" />
    </linearGradient>
    <circle
       cx="10"
       cy="14"
       r="1.556"
       style="fill:url(#linearGradient10028)"
       id="circle295"
       d="m 11.556,14 c 0,0.859355 -0.696645,1.556 -1.556,1.556 -0.8593551,0 -1.556,-0.696645 -1.556,-1.556 0,-0.859355 0.6966449,-1.556 1.556,-1.556 0.859355,0 1.556,0.696645 1.556,1.556 z" />
  </g>
  <use
     transform="translate(0,8)"
     id="use2548"
     x="0"
     y="0"
     width="128"
     height="128"
     xlink:href="#g281" />
  <use
     transform="translate(0,16)"
     id="use2582"
     x="0"
     y="0"
     width="128"
     height="128"
     xlink:href="#g281" />
  <use
     transform="translate(0,24)"
     id="use2584"
     x="0"
     y="0"
     width="128"
     height="128"
     xlink:href="#g281" />
  <use
     transform="translate(0,80)"
     id="use2586"
     x="0"
     y="0"
     width="128"
     height="128"
     xlink:href="#g281" />
  <use
     transform="translate(0,-8)"
     id="use2588"
     x="0"
     y="0"
     width="128"
     height="128"
     xlink:href="#use2586" />
  <use
     transform="translate(0,-8)"
     id="use2590"
     x="0"
     y="0"
     width="128"
     height="128"
     xlink:href="#use2588" />
  <use
     transform="translate(0,-8)"
     id="use2592"
     x="0"
     y="0"
     width="128"
     height="128"
     xlink:href="#use2590" />
  <use
     transform="translate(0,-8)"
     id="use2594"
     x="0"
     y="0"
     width="128"
     height="128"
     xlink:href="#use2592" />
  <use
     transform="translate(0,-8)"
     id="use2596"
     x="0"
     y="0"
     width="128"
     height="128"
     xlink:href="#use2594" />
  <use
     transform="translate(0,-8)"
     id="use2598"
     x="0"
     y="0"
     width="128"
     height="128"
     xlink:href="#use2596" />
  <use
     transform="translate(0,88)"
     id="use2701"
     x="0"
     y="0"
     width="128"
     height="128"
     xlink:href="#g281" />
  <use
     transform="translate(0,96)"
     id="use2703"
     x="0"
     y="0"
     width="128"
     height="128"
     xlink:href="#g281" />
  <text
     xml:space="preserve"
     style="font-size:40px;font-style:normal;font-weight:normal;text-align:center;line-height:125%;letter-spacing:0px;word-spacing:0px;text-anchor:middle;fill:#666666;fill-opacity:1;stroke:none;font-family:Sans"
     x="64"
     y="32.000004"
     id="text9950"
     sodipodi:linespacing="125%"
     inkscape:export-filename="C:\Users\Joseph\Weblocal\spip-oxygen\png-128\ram.png"
     inkscape:export-xdpi="90"
     inkscape:export-ydpi="90"><tspan
       sodipodi:role="line"
       id="tspan9952"
       x="64"
       y="32.000004"
       style="font-size:24px;font-style:normal;font-variant:normal;font-weight:bold;font-stretch:normal;fill:#666666;font-family:Liberation Sans Narrow;-inkscape-font-specification:Liberation Sans Narrow Bold">CSV</tspan></text>
</svg>
