<?xml version="1.0" encoding="UTF-8" standalone="no"?>
<!-- Created with Inkscape (http://www.inkscape.org/) -->

<svg
   xmlns:dc="http://purl.org/dc/elements/1.1/"
   xmlns:cc="http://creativecommons.org/ns#"
   xmlns:rdf="http://www.w3.org/1999/02/22-rdf-syntax-ns#"
   xmlns:svg="http://www.w3.org/2000/svg"
   xmlns="http://www.w3.org/2000/svg"
   xmlns:xlink="http://www.w3.org/1999/xlink"
   xmlns:sodipodi="http://sodipodi.sourceforge.net/DTD/sodipodi-0.dtd"
   xmlns:inkscape="http://www.inkscape.org/namespaces/inkscape"
   width="128"
   height="128"
   id="svg2606"
   sodipodi:version="0.32"
   inkscape:version="0.48.2 r9819"
   version="1.0"
   sodipodi:docname="psd.svg"
   inkscape:output_extension="org.inkscape.output.svg.inkscape"
   inkscape:export-filename="C:\Users\Joseph\Weblocal\spip-oxygen\png-52\psd.png"
   inkscape:export-xdpi="36.560001"
   inkscape:export-ydpi="36.560001">
  <defs
     id="defs2608">
    <linearGradient
       inkscape:collect="always"
       xlink:href="#XMLID_9_"
       id="linearGradient3894"
       gradientUnits="userSpaceOnUse"
       x1="54.103237"
       y1="32.580181"
       x2="32.584381"
       y2="31.295557"
       gradientTransform="matrix(0.6736273,0,0,0.6880491,42.39699,15.073568)" />
    <radialGradient
       cx="54.212399"
       cy="18.0903"
       r="26.416201"
       id="XMLID_14_"
       gradientUnits="userSpaceOnUse">
      <stop
         style="stop-color:#f0ff80;stop-opacity:1"
         offset="0.33140001"
         id="stop74" />
      <stop
         style="stop-color:#00ff00;stop-opacity:0;"
         offset="0.67438829"
         id="stop3926" />
    </radialGradient>
    <radialGradient
       inkscape:collect="always"
       xlink:href="#XMLID_14_"
       id="radialGradient3885"
       gradientUnits="userSpaceOnUse"
       cx="54.212399"
       cy="18.0903"
       r="26.416201"
       gradientTransform="matrix(0.624346,0,0,0.624346,45.032334,16.880096)" />
    <linearGradient
       id="linearGradient8528">
      <stop
         style="stop-color:#888888;stop-opacity:0.39215687;"
         offset="0"
         id="stop8530" />
      <stop
         id="stop8540"
         offset="0.5"
         style="stop-color:#888888;stop-opacity:1;" />
      <stop
         style="stop-color:#888888;stop-opacity:0.39215687;"
         offset="1"
         id="stop8532" />
    </linearGradient>
    <radialGradient
       gradientUnits="userSpaceOnUse"
       r="65.999802"
       cy="25"
       cx="60"
       id="XMLID_11_">
      <stop
         id="stop7985"
         style="stop-color:#77DE6C"
         offset="0" />
      <stop
         id="stop7987"
         style="stop-color:#0A8000"
         offset="1" />
    </radialGradient>
    <radialGradient
       style="fill-opacity:1.0;fill:url(#linearGradient6728)"
       gradientUnits="userSpaceOnUse"
       r="25.1951"
       cy="100"
       cx="23.7837"
       id="radialGradient4397">
      <stop
         offset="0"
         style="stop-color:#2eb800;stop-opacity:1;"
         id="stop4401" />
      <stop
         id="stop4403"
         style="stop-color:#003a00;stop-opacity:1;"
         offset="1" />
    </radialGradient>
    <linearGradient
       y2="19.9497"
       x2="52.9131"
       y1="8.6162"
       x1="62.2461"
       gradientUnits="userSpaceOnUse"
       id="linearGradient5332">
      <stop
         id="stop5334"
         style="stop-color:#000000;stop-opacity:0;"
         offset="0" />
      <stop
         id="stop5336"
         style="stop-color:#07631a;stop-opacity:1;"
         offset="1" />
    </linearGradient>
    <linearGradient
       id="linearGradient2848">
      <stop
         style="stop-color:#c3ff6a;stop-opacity:1;"
         offset="0"
         id="stop2850" />
      <stop
         style="stop-color:#a6ff88;stop-opacity:0;"
         offset="1"
         id="stop2852" />
    </linearGradient>
    <radialGradient
       gradientUnits="userSpaceOnUse"
       fy="88.667"
       fx="17.1172"
       r="14"
       cy="94"
       cx="19.7837"
       id="radialGradient4531">
      <stop
         id="stop4533"
         style="stop-color:#ffffff;stop-opacity:1;"
         offset="0" />
      <stop
         offset="0.5"
         style="stop-color:#ffffff;stop-opacity:0.70886075;"
         id="stop4537" />
      <stop
         id="stop4535"
         style="stop-color:#ffffff;stop-opacity:0;"
         offset="1" />
    </radialGradient>
    <linearGradient
       id="linearGradient4540">
      <stop
         style="stop-color:#008800;stop-opacity:1;"
         offset="0"
         id="stop4542" />
      <stop
         style="stop-color:#0aa800;stop-opacity:0.60759491;"
         offset="1"
         id="stop4544" />
    </linearGradient>
    <radialGradient
       id="XMLID_10_"
       cx="23.7837"
       cy="100"
       r="25.1951"
       gradientUnits="userSpaceOnUse"
       style="fill-opacity:1.0;fill:url(#linearGradient6728)">
      <stop
         offset="0"
         style="stop-color:#287f00;stop-opacity:1;"
         id="stop35" />
      <stop
         id="stop9094"
         style="stop-color:#3cf000;stop-opacity:1;"
         offset="0.5" />
      <stop
         offset="1"
         style="stop-color:#003a00;stop-opacity:1;"
         id="stop43" />
    </radialGradient>
    <linearGradient
       id="linearGradient4390">
      <stop
         style="stop-color:#00a208;stop-opacity:1;"
         offset="0"
         id="stop4392" />
      <stop
         id="stop4398"
         offset="0.5"
         style="stop-color:#dfffa8;stop-opacity:1;" />
      <stop
         style="stop-color:#8aff47;stop-opacity:0.63291138;"
         offset="1"
         id="stop4394" />
    </linearGradient>
    <linearGradient
       id="XMLID_9_"
       gradientUnits="userSpaceOnUse"
       x1="40.1172"
       y1="49"
       x2="48.1172"
       y2="49">
      <stop
         offset="0"
         style="stop-color:#008e00;stop-opacity:1;"
         id="stop16" />
      <stop
         offset="0.2294"
         style="stop-color:#008700"
         id="stop18" />
      <stop
         offset="0.5127"
         style="stop-color:#007800"
         id="stop20" />
      <stop
         offset="0.8231"
         style="stop-color:#005F00"
         id="stop22" />
      <stop
         offset="1"
         style="stop-color:#004D00"
         id="stop24" />
    </linearGradient>
    <linearGradient
       id="XMLID_13_"
       gradientUnits="userSpaceOnUse"
       x1="62.2461"
       y1="8.6162"
       x2="52.9131"
       y2="19.9497">
      <stop
         offset="0"
         style="stop-color:#000000;stop-opacity:1;"
         id="stop88" />
      <stop
         offset="1"
         style="stop-color:#000000;stop-opacity:0;"
         id="stop104" />
    </linearGradient>
    <linearGradient
       id="linearGradient10207">
      <stop
         style="stop-color:#a2a2a2;stop-opacity:1;"
         offset="0"
         id="stop10209" />
      <stop
         style="stop-color:#ffffff;stop-opacity:1;"
         offset="1"
         id="stop10211" />
    </linearGradient>
    <linearGradient
       id="XMLID_12_"
       gradientUnits="userSpaceOnUse"
       x1="96"
       y1="104"
       x2="88.000198"
       y2="96.000198">
      <stop
         offset="0"
         style="stop-color:#888A85"
         id="stop83" />
      <stop
         offset="0.0072"
         style="stop-color:#8C8E89"
         id="stop85" />
      <stop
         offset="0.0673"
         style="stop-color:#ABACA9"
         id="stop87" />
      <stop
         offset="0.1347"
         style="stop-color:#C5C6C4"
         id="stop89" />
      <stop
         offset="0.2652576"
         style="stop-color:#DBDBDA"
         id="stop91" />
      <stop
         offset="0.37646064"
         style="stop-color:#EBEBEB"
         id="stop93" />
      <stop
         offset="0.48740286"
         style="stop-color:#F7F7F6"
         id="stop95" />
      <stop
         offset="0.6324091"
         style="stop-color:#FDFDFD"
         id="stop97" />
      <stop
         offset="1"
         style="stop-color:#FFFFFF"
         id="stop99" />
    </linearGradient>
    <radialGradient
       id="XMLID_8_"
       cx="102"
       cy="112.3047"
       r="139.55859"
       gradientUnits="userSpaceOnUse">
      <stop
         offset="0"
         style="stop-color:#b7b8b9;stop-opacity:1;"
         id="stop41" />
      <stop
         offset="0.18851049"
         style="stop-color:#ECECEC"
         id="stop47" />
      <stop
         offset="0.25718147"
         style="stop-color:#FAFAFA"
         id="stop49" />
      <stop
         offset="0.30111277"
         style="stop-color:#FFFFFF"
         id="stop51" />
      <stop
         offset="0.5313"
         style="stop-color:#FAFAFA"
         id="stop53" />
      <stop
         offset="0.8449"
         style="stop-color:#EBECEC"
         id="stop55" />
      <stop
         offset="1"
         style="stop-color:#E1E2E3"
         id="stop57" />
    </radialGradient>
    <filter
       inkscape:collect="always"
       x="-0.19200002"
       width="1.3839999"
       y="-0.19199999"
       height="1.3839999"
       id="filter6697">
      <feGaussianBlur
         inkscape:collect="always"
         stdDeviation="1.9447689"
         id="feGaussianBlur6699" />
    </filter>
    <clipPath
       clipPathUnits="userSpaceOnUse"
       id="clipPath7084">
      <path
         style="fill:#000000;fill-opacity:1;fill-rule:evenodd;stroke:none;stroke-width:1px;stroke-linecap:butt;stroke-linejoin:miter;stroke-opacity:1"
         d="M 72,88 L 40,120 L 32,120 L 32,80 L 72,80 L 72,88 z"
         id="path7086" />
    </clipPath>
    <radialGradient
       inkscape:collect="always"
       xlink:href="#XMLID_8_"
       id="radialGradient9437"
       gradientUnits="userSpaceOnUse"
       gradientTransform="matrix(1,0,0,0.9996653,2e-6,3.0160848e-3)"
       cx="102"
       cy="112.3047"
       r="139.55859" />
    <linearGradient
       inkscape:collect="always"
       xlink:href="#linearGradient10207"
       id="linearGradient10213"
       x1="98.617439"
       y1="106.41443"
       x2="91.228737"
       y2="99.254974"
       gradientUnits="userSpaceOnUse" />
    <filter
       inkscape:collect="always"
       id="filter2770">
      <feGaussianBlur
         inkscape:collect="always"
         stdDeviation="2.0786429"
         id="feGaussianBlur2772" />
    </filter>
    <radialGradient
       inkscape:collect="always"
       xlink:href="#XMLID_13_"
       id="radialGradient7858"
       gradientUnits="userSpaceOnUse"
       gradientTransform="matrix(1,0,0,0.2670157,0,81.512404)"
       cx="45.43161"
       cy="111.20621"
       fx="45.43161"
       fy="111.20621"
       r="33.764351" />
    <linearGradient
       inkscape:collect="always"
       xlink:href="#XMLID_9_"
       id="linearGradient7860"
       gradientUnits="userSpaceOnUse"
       x1="40.1172"
       y1="49"
       x2="48.1172"
       y2="49" />
    <linearGradient
       inkscape:collect="always"
       xlink:href="#linearGradient4390"
       id="linearGradient7862"
       gradientUnits="userSpaceOnUse"
       x1="44.142799"
       y1="3.4933131"
       x2="44.142799"
       y2="94.157005" />
    <linearGradient
       inkscape:collect="always"
       xlink:href="#XMLID_13_"
       id="linearGradient7864"
       gradientUnits="userSpaceOnUse"
       gradientTransform="matrix(1,0,0,0.9999508,19.75779,0)"
       x1="44.117001"
       y1="88.249001"
       x2="44.117001"
       y2="83.652809" />
    <linearGradient
       inkscape:collect="always"
       xlink:href="#XMLID_10_"
       id="linearGradient7866"
       gradientUnits="userSpaceOnUse"
       gradientTransform="matrix(1,0,0,0.8419836,19.882588,18.956994)"
       x1="0.1174117"
       y1="101.0003"
       x2="43.927124"
       y2="92.500053" />
    <linearGradient
       inkscape:collect="always"
       xlink:href="#linearGradient4540"
       id="linearGradient7868"
       gradientUnits="userSpaceOnUse"
       x1="3.9885471"
       y1="100.01298"
       x2="43.874181"
       y2="100.01298" />
    <radialGradient
       inkscape:collect="always"
       xlink:href="#radialGradient4531"
       id="radialGradient7870"
       gradientUnits="userSpaceOnUse"
       gradientTransform="matrix(0.6862309,-0.2788753,0.2607269,0.6833644,-6.7420546e-2,33.863485)"
       cx="22.501722"
       cy="91.356857"
       fx="19.835222"
       fy="86.023857"
       r="14" />
    <radialGradient
       inkscape:collect="always"
       xlink:href="#linearGradient2848"
       id="radialGradient7872"
       gradientUnits="userSpaceOnUse"
       gradientTransform="matrix(1,-2.6486575e-2,1.3961697e-2,0.5271235,18.16764,52.58348)"
       cx="27.127048"
       cy="113.89391"
       fx="27.127048"
       fy="113.89391"
       r="11.990002" />
    <linearGradient
       inkscape:collect="always"
       xlink:href="#linearGradient5332"
       id="linearGradient7874"
       gradientUnits="userSpaceOnUse"
       gradientTransform="matrix(1,0,0,-1,39.75779,128)"
       x1="22.025112"
       y1="29.212114"
       x2="21.785669"
       y2="7.9726162" />
    <linearGradient
       inkscape:collect="always"
       xlink:href="#radialGradient4397"
       id="linearGradient7876"
       gradientUnits="userSpaceOnUse"
       gradientTransform="scale(1,0.9999508)"
       x1="92.25"
       y1="8.4984522"
       x2="68"
       y2="15.500762" />
    <linearGradient
       inkscape:collect="always"
       xlink:href="#linearGradient2848"
       id="linearGradient7878"
       gradientUnits="userSpaceOnUse"
       gradientTransform="matrix(0.962555,0,0,0.95911,3.8148459,-0.5857864)"
       x1="80.965881"
       y1="4.8331532"
       x2="76.376823"
       y2="14.051684" />
    <linearGradient
       inkscape:collect="always"
       xlink:href="#linearGradient8528"
       id="linearGradient8534"
       x1="83.806137"
       y1="33.289322"
       x2="83.806137"
       y2="92.312012"
       gradientUnits="userSpaceOnUse" />
    <linearGradient
       inkscape:collect="always"
       xlink:href="#linearGradient8528"
       id="linearGradient8536"
       x1="83.806137"
       y1="33.289322"
       x2="83.806137"
       y2="92.312012"
       gradientUnits="userSpaceOnUse" />
    <linearGradient
       inkscape:collect="always"
       xlink:href="#linearGradient8528"
       id="linearGradient8538"
       x1="83.806137"
       y1="33.289322"
       x2="83.806137"
       y2="92.312012"
       gradientUnits="userSpaceOnUse" />
    <linearGradient
       inkscape:collect="always"
       xlink:href="#linearGradient8528"
       id="linearGradient8559"
       gradientUnits="userSpaceOnUse"
       x1="83.806137"
       y1="33.289322"
       x2="83.806137"
       y2="92.312012" />
    <linearGradient
       inkscape:collect="always"
       xlink:href="#linearGradient8528"
       id="linearGradient8561"
       gradientUnits="userSpaceOnUse"
       x1="83.806137"
       y1="33.289322"
       x2="83.806137"
       y2="92.312012" />
    <linearGradient
       inkscape:collect="always"
       xlink:href="#linearGradient8528"
       id="linearGradient8563"
       gradientUnits="userSpaceOnUse"
       x1="83.806137"
       y1="33.289322"
       x2="83.806137"
       y2="92.312012" />
    <linearGradient
       inkscape:collect="always"
       xlink:href="#linearGradient8528"
       id="linearGradient8565"
       gradientUnits="userSpaceOnUse"
       x1="83.806137"
       y1="33.289322"
       x2="83.806137"
       y2="92.312012" />
    <linearGradient
       inkscape:collect="always"
       xlink:href="#linearGradient8528"
       id="linearGradient8567"
       gradientUnits="userSpaceOnUse"
       x1="83.806137"
       y1="33.289322"
       x2="83.806137"
       y2="92.312012" />
    <linearGradient
       inkscape:collect="always"
       xlink:href="#linearGradient8528"
       id="linearGradient8569"
       gradientUnits="userSpaceOnUse"
       x1="83.806137"
       y1="33.289322"
       x2="83.806137"
       y2="92.312012" />
    <linearGradient
       inkscape:collect="always"
       xlink:href="#linearGradient8528"
       id="linearGradient8603"
       gradientUnits="userSpaceOnUse"
       x1="83.806137"
       y1="33.289322"
       x2="83.806137"
       y2="92.312012" />
    <linearGradient
       inkscape:collect="always"
       xlink:href="#linearGradient8528"
       id="linearGradient8605"
       gradientUnits="userSpaceOnUse"
       x1="83.806137"
       y1="33.289322"
       x2="83.806137"
       y2="92.312012" />
    <linearGradient
       inkscape:collect="always"
       xlink:href="#linearGradient8528"
       id="linearGradient8607"
       gradientUnits="userSpaceOnUse"
       x1="83.806137"
       y1="33.289322"
       x2="83.806137"
       y2="92.312012" />
    <linearGradient
       inkscape:collect="always"
       xlink:href="#linearGradient8528"
       id="linearGradient8609"
       gradientUnits="userSpaceOnUse"
       x1="83.806137"
       y1="33.289322"
       x2="83.806137"
       y2="92.312012" />
    <linearGradient
       inkscape:collect="always"
       xlink:href="#linearGradient8528"
       id="linearGradient8611"
       gradientUnits="userSpaceOnUse"
       x1="83.806137"
       y1="33.289322"
       x2="83.806137"
       y2="92.312012" />
    <linearGradient
       inkscape:collect="always"
       xlink:href="#linearGradient8528"
       id="linearGradient8613"
       gradientUnits="userSpaceOnUse"
       x1="83.806137"
       y1="33.289322"
       x2="83.806137"
       y2="92.312012" />
    <linearGradient
       inkscape:collect="always"
       xlink:href="#XMLID_9_"
       id="linearGradient9414"
       gradientUnits="userSpaceOnUse"
       x1="40.1172"
       y1="49"
       x2="48.1172"
       y2="49" />
    <linearGradient
       inkscape:collect="always"
       xlink:href="#linearGradient4390"
       id="linearGradient9416"
       gradientUnits="userSpaceOnUse"
       x1="44.142799"
       y1="3.4933131"
       x2="44.142799"
       y2="94.157005" />
    <linearGradient
       inkscape:collect="always"
       xlink:href="#XMLID_13_"
       id="linearGradient9418"
       gradientUnits="userSpaceOnUse"
       gradientTransform="matrix(1,0,0,0.9999508,19.75779,0)"
       x1="44.117001"
       y1="88.249001"
       x2="44.117001"
       y2="83.652809" />
    <linearGradient
       inkscape:collect="always"
       xlink:href="#XMLID_10_"
       id="linearGradient9420"
       gradientUnits="userSpaceOnUse"
       gradientTransform="matrix(1,0,0,0.8419836,19.882588,18.956994)"
       x1="0.1174117"
       y1="101.0003"
       x2="43.927124"
       y2="92.500053" />
    <linearGradient
       inkscape:collect="always"
       xlink:href="#linearGradient4540"
       id="linearGradient9422"
       gradientUnits="userSpaceOnUse"
       x1="3.9885471"
       y1="100.01298"
       x2="43.874181"
       y2="100.01298" />
    <radialGradient
       inkscape:collect="always"
       xlink:href="#radialGradient4531"
       id="radialGradient9424"
       gradientUnits="userSpaceOnUse"
       gradientTransform="matrix(0.6862309,-0.2788753,0.2607269,0.6833644,-6.7420546e-2,33.863485)"
       cx="22.501722"
       cy="91.356857"
       fx="19.835222"
       fy="86.023857"
       r="14" />
    <radialGradient
       inkscape:collect="always"
       xlink:href="#linearGradient2848"
       id="radialGradient9426"
       gradientUnits="userSpaceOnUse"
       gradientTransform="matrix(1,-2.6486575e-2,1.3961697e-2,0.5271235,18.16764,52.58348)"
       cx="27.127048"
       cy="113.89391"
       fx="27.127048"
       fy="113.89391"
       r="11.990002" />
    <linearGradient
       inkscape:collect="always"
       xlink:href="#linearGradient5332"
       id="linearGradient9428"
       gradientUnits="userSpaceOnUse"
       gradientTransform="matrix(1,0,0,-1,39.75779,128)"
       x1="22.025112"
       y1="29.212114"
       x2="21.785669"
       y2="7.9726162" />
    <linearGradient
       inkscape:collect="always"
       xlink:href="#radialGradient4397"
       id="linearGradient9430"
       gradientUnits="userSpaceOnUse"
       gradientTransform="scale(1,0.9999508)"
       x1="92.25"
       y1="8.4984522"
       x2="68"
       y2="15.500762" />
    <linearGradient
       inkscape:collect="always"
       xlink:href="#radialGradient4397"
       id="linearGradient9433"
       gradientUnits="userSpaceOnUse"
       gradientTransform="matrix(0.64,0,0,0.6451296,24.32,20.000001)"
       x1="92.25"
       y1="8.4984522"
       x2="68"
       y2="15.500762" />
    <linearGradient
       inkscape:collect="always"
       xlink:href="#XMLID_10_"
       id="linearGradient9440"
       gradientUnits="userSpaceOnUse"
       gradientTransform="matrix(0.6433337,0,0,0.5432152,37.044465,32.23032)"
       x1="0.1174117"
       y1="101.0003"
       x2="43.927124"
       y2="92.500053" />
    <linearGradient
       inkscape:collect="always"
       xlink:href="#XMLID_13_"
       id="linearGradient9443"
       gradientUnits="userSpaceOnUse"
       gradientTransform="matrix(0.64,0,0,0.6451296,36.964986,20.000001)"
       x1="44.117001"
       y1="88.249001"
       x2="44.117001"
       y2="83.652809" />
    <linearGradient
       inkscape:collect="always"
       xlink:href="#XMLID_9_"
       id="linearGradient9447"
       gradientUnits="userSpaceOnUse"
       x1="40.1172"
       y1="49"
       x2="48.1172"
       y2="49"
       gradientTransform="matrix(0.64,0,0,0.6451296,37.04512,20.000001)" />
    <radialGradient
       inkscape:collect="always"
       xlink:href="#XMLID_13_"
       id="radialGradient10249"
       gradientUnits="userSpaceOnUse"
       gradientTransform="matrix(1,0,0,0.2670157,0,81.512404)"
       cx="45.43161"
       cy="111.20621"
       fx="45.43161"
       fy="111.20621"
       r="33.764351" />
    <linearGradient
       inkscape:collect="always"
       xlink:href="#linearGradient4390"
       id="linearGradient10253"
       gradientUnits="userSpaceOnUse"
       x1="44.142799"
       y1="3.4933131"
       x2="44.142799"
       y2="94.157005" />
    <linearGradient
       inkscape:collect="always"
       xlink:href="#XMLID_13_"
       id="linearGradient3910"
       gradientUnits="userSpaceOnUse"
       gradientTransform="matrix(0.4999999,0,0,0.5990894,43.9415,23.614063)"
       x1="44.117001"
       y1="88.249001"
       x2="44.117001"
       y2="83.652809" />
    <linearGradient
       inkscape:collect="always"
       xlink:href="#XMLID_9_"
       id="linearGradient3914"
       gradientUnits="userSpaceOnUse"
       gradientTransform="matrix(0.4848485,0,0,0.6314195,44.549334,20.000001)"
       x1="40.1172"
       y1="49"
       x2="48.1172"
       y2="49" />
    <linearGradient
       inkscape:collect="always"
       xlink:href="#XMLID_10_"
       id="linearGradient4914"
       gradientUnits="userSpaceOnUse"
       gradientTransform="matrix(0.6433337,0,0,0.5432152,37.044465,32.23032)"
       x1="0.1174117"
       y1="101.0003"
       x2="43.927124"
       y2="92.500053" />
    <linearGradient
       inkscape:collect="always"
       xlink:href="#linearGradient4540"
       id="linearGradient4916"
       gradientUnits="userSpaceOnUse"
       x1="3.9885471"
       y1="100.01298"
       x2="43.874181"
       y2="100.01298" />
    <radialGradient
       inkscape:collect="always"
       xlink:href="#radialGradient4531"
       id="radialGradient4918"
       gradientUnits="userSpaceOnUse"
       gradientTransform="matrix(0.6862309,-0.2788753,0.2607269,0.6833644,-0.06742055,33.863485)"
       cx="22.501722"
       cy="91.356857"
       fx="19.835222"
       fy="86.023857"
       r="14" />
    <radialGradient
       inkscape:collect="always"
       xlink:href="#linearGradient2848"
       id="radialGradient4920"
       gradientUnits="userSpaceOnUse"
       gradientTransform="matrix(1,-0.02648657,0.0139617,0.5271235,18.16764,52.58348)"
       cx="27.127048"
       cy="113.89391"
       fx="27.127048"
       fy="113.89391"
       r="11.990002" />
    <linearGradient
       inkscape:collect="always"
       xlink:href="#linearGradient5332"
       id="linearGradient4922"
       gradientUnits="userSpaceOnUse"
       gradientTransform="matrix(1,0,0,-1,39.75779,128)"
       x1="22.025112"
       y1="29.212114"
       x2="21.785669"
       y2="7.9726162" />
    <radialGradient
       gradientTransform="matrix(0.901746,0.00739379,-0.00120184,0.329372,2.127997,26.71591)"
       id="radialGradient6774"
       gradientUnits="userSpaceOnUse"
       xlink:show="other"
       xlink:type="simple"
       r="17.02107"
       cx="21.148216"
       fx="21.148216"
       cy="41.692692"
       fy="41.692692"
       xlink:actuate="onLoad">
      <stop
         stop-opacity="1"
         stop-color="#000000"
         offset="0"
         id="stop70" />
      <stop
         stop-opacity="0"
         stop-color="#000000"
         offset="1"
         id="stop72" />
    </radialGradient>
    <linearGradient
       x1="10.071428"
       y1="12.857143"
       x2="36.714283"
       gradientUnits="userSpaceOnUse"
       y2="33.642857"
       xlink:type="simple"
       xlink:actuate="onLoad"
       id="linearGradient6748"
       xlink:show="other">
      <stop
         stop-opacity="1"
         stop-color="#3675d1"
         offset="0"
         id="stop55-8" />
      <stop
         stop-opacity="1"
         stop-color="#25579f"
         offset="1"
         id="stop57-6" />
    </linearGradient>
    <linearGradient
       x1="34.915569"
       y1="32.966518"
       x2="11.013001"
       gradientUnits="userSpaceOnUse"
       y2="8.8236609"
       xlink:type="simple"
       xlink:actuate="onLoad"
       id="linearGradient6756"
       xlink:show="other">
      <stop
         stop-opacity="0.72941178"
         stop-color="#FFFFFF"
         offset="0"
         id="stop60" />
      <stop
         stop-opacity="1"
         stop-color="#FFFFFF"
         offset="1"
         id="stop62" />
    </linearGradient>
    <linearGradient
       gradientTransform="translate(-3.410666,0.141595)"
       id="linearGradient6760"
       gradientUnits="userSpaceOnUse"
       xlink:show="other"
       xlink:type="simple"
       x1="20"
       y1="21.001263"
       y2="21.001263"
       x2="35.964085"
       xlink:actuate="onLoad">
      <stop
         stop-opacity="1"
         stop-color="#bdcce1"
         offset="0"
         id="stop65" />
      <stop
         stop-opacity="0"
         stop-color="#bdcce1"
         offset="1"
         id="stop67" />
    </linearGradient>
    <linearGradient
       x1="46.882267"
       y1="75.753494"
       x2="46.882267"
       y2="35.372066"
       id="linearGradient3827"
       xlink:href="#linearGradient3821"
       gradientUnits="userSpaceOnUse"
       gradientTransform="translate(-4,0)" />
    <linearGradient
       id="linearGradient3821">
      <stop
         id="stop3823"
         style="stop-color:#de6a07;stop-opacity:1"
         offset="0" />
      <stop
         id="stop3825"
         style="stop-color:#f8a425;stop-opacity:1"
         offset="1" />
    </linearGradient>
    <linearGradient
       inkscape:collect="always"
       xlink:href="#linearGradient3821"
       id="linearGradient8691"
       gradientUnits="userSpaceOnUse"
       gradientTransform="translate(-100,15)"
       x1="46.882267"
       y1="75.753494"
       x2="46.882267"
       y2="35.372066" />
    <linearGradient
       x1="46.906918"
       y1="75.471306"
       x2="46.906918"
       y2="36.246487"
       id="linearGradient3745"
       xlink:href="#linearGradient3729"
       gradientUnits="userSpaceOnUse"
       gradientTransform="translate(-2,0)" />
    <linearGradient
       id="linearGradient3729">
      <stop
         id="stop3731"
         style="stop-color:#1c59ad;stop-opacity:1"
         offset="0" />
      <stop
         id="stop3733"
         style="stop-color:#377ad6;stop-opacity:1"
         offset="1" />
    </linearGradient>
  </defs>
  <sodipodi:namedview
     id="base"
     pagecolor="#ffffff"
     bordercolor="#666666"
     borderopacity="1.0"
     inkscape:pageopacity="0.0"
     inkscape:pageshadow="2"
     inkscape:zoom="2.8284271"
     inkscape:cx="-6.1803485"
     inkscape:cy="60.344296"
     inkscape:document-units="px"
     inkscape:current-layer="layer1"
     width="128px"
     height="128px"
     showgrid="true"
     inkscape:grid-points="true"
     showguides="true"
     inkscape:guide-bbox="true"
     inkscape:window-width="1235"
     inkscape:window-height="692"
     inkscape:window-x="0"
     inkscape:window-y="0"
     inkscape:window-maximized="0">
    <inkscape:grid
       id="GridFromPre046Settings"
       type="xygrid"
       originx="0px"
       originy="0px"
       spacingx="4px"
       spacingy="4px"
       color="#0000ff"
       empcolor="#0000ff"
       opacity="0.2"
       empopacity="0.4"
       empspacing="2" />
  </sodipodi:namedview>
  <metadata
     id="metadata2611">
    <rdf:RDF>
      <cc:Work
         rdf:about="">
        <dc:format>image/svg+xml</dc:format>
        <dc:type
           rdf:resource="http://purl.org/dc/dcmitype/StillImage" />
        <dc:title></dc:title>
      </cc:Work>
    </rdf:RDF>
  </metadata>
  <g
     inkscape:label="Livello 1"
     inkscape:groupmode="layer"
     id="layer1">
    <path
       style="opacity:0.5;fill:#000000;fill-opacity:1;filter:url(#filter2770)"
       d="M 16,8 L 16,120 C 16,120 79.15625,120 79.15625,120 L 79.1875,120 C 79.187503,120 91.09375,110.09375 96.59375,104.59375 C 102.09375,99.09375 112,87.1875 112,87.1875 L 112,87.15625 L 112,8 L 16,8 z"
       id="path7865"
       sodipodi:nodetypes="csccscccc"
       transform="matrix(1.0416667,0,0,1.0267857,-2.6666667,-1.2142891)" />
    <path
       style="fill:#ffffff;fill-opacity:1"
       d="M 16.000001,8 L 16,120 C 16,120 79.146418,120 79.146418,120 L 112,87.14642 L 112,8 L 16.000001,8 z"
       id="path34"
       sodipodi:nodetypes="cccccc" />
    <path
       style="fill:url(#radialGradient9437);fill-opacity:1"
       d="M 18.000002,9.0000034 C 17.449002,9.0000034 17.000002,9.4488534 17.000002,9.9996684 L 17.000002,117.96352 C 17.000002,118.51533 17.449002,118.96318 18.000002,118.96318 L 77.171999,118.96318 C 77.434999,118.96318 79.934679,119.08131 80.12068,118.89438 L 110.707,88.094202 C 110.894,87.907264 111,85.40942 111,85.146508 L 111,9.9996684 C 111,9.4488534 110.552,9.0000034 110,9.0000034 L 18.000002,9.0000034 z"
       id="path59"
       sodipodi:nodetypes="ccccccccccc" />
    <path
       d="M 41.879531,115.98249 C 41.879531,115.98249 66.18914,91.672876 66.18914,91.672876 C 66.18914,91.672876 56.836,94.586 46.586,94.586 C 46.586,104.836 41.879531,115.98249 41.879531,115.98249 z"
       id="path5540"
       style="opacity:0.4;fill:#000000;fill-opacity:1;filter:url(#filter6697)"
       sodipodi:nodetypes="cccc"
       clip-path="url(#clipPath7084)"
       transform="translate(40,0)" />
    <text
       xml:space="preserve"
       style="font-size:40px;font-style:normal;font-weight:normal;text-align:center;line-height:125%;letter-spacing:0px;word-spacing:0px;text-anchor:middle;fill:#666666;fill-opacity:1;stroke:none;font-family:Sans"
       x="64"
       y="32"
       id="text9950"
       sodipodi:linespacing="125%"
       inkscape:export-filename="C:\Users\Joseph\Weblocal\spip-oxygen\png-128\ram.png"
       inkscape:export-xdpi="90"
       inkscape:export-ydpi="90"><tspan
         sodipodi:role="line"
         id="tspan9952"
         x="64"
         y="32"
         style="font-size:24px;font-style:normal;font-variant:normal;font-weight:bold;font-stretch:normal;fill:#666666;font-family:Liberation Sans Narrow;-inkscape-font-specification:Liberation Sans Narrow Bold">PSD</tspan></text>
    <g
       transform="matrix(1.2765957,0,0,1.2765957,0.80851285,7.7021311)"
       id="layer4">
      <path
         d="m 26,36 0,40 7.65625,0 0,-14.65625 2.65625,0 c 3.007821,1.4e-5 5.496289,-0.376132 7.46875,-1.09375 2.017576,-0.727286 3.626148,-1.691995 4.8125,-2.875 1.217362,-1.19583 2.068695,-2.559991 2.59375,-4.125 0.533685,-1.590867 0.812468,-3.25766 0.8125,-5 -3.2e-5,-1.949457 -0.294026,-3.658067 -0.875,-5.15625 C 50.54664,41.584779 49.642992,40.337651 48.4375,39.3125 47.253899,38.273214 45.713567,37.468336 43.8125,36.90625 41.939289,36.329021 39.649294,36.000039 37,36 l -11,0 z m 7.65625,5.96875 2.90625,0 c 2.511415,3.5e-5 4.427443,0.5071 5.71875,1.625 1.306893,1.112657 1.906224,2.84282 1.90625,5 -2.6e-5,2.311914 -0.668573,4.108399 -2.125,5.21875 -1.416336,1.09616 -3.445909,1.562523 -6.03125,1.5625 l -2.375,0 0,-13.40625 z M 63.875,48 c -1.49113,3e-5 -2.838222,0.14666 -4.0625,0.46875 -1.208598,0.306038 -2.230474,0.778148 -3.09375,1.40625 -0.863283,0.628154 -1.529123,1.42478 -2,2.375 -0.470881,0.93416 -0.718751,2.025016 -0.71875,3.28125 -10e-7,1.143534 0.139416,2.131263 0.40625,2.96875 0.26683,0.821415 0.653834,1.574532 1.1875,2.21875 0.549356,0.644249 1.261859,1.21852 2.09375,1.75 0.847577,0.515399 1.822934,1.03102 2.96875,1.5625 1.177189,0.54761 2.121866,1.019721 2.8125,1.40625 0.706307,0.370445 1.232729,0.725246 1.59375,1.03125 0.360992,0.289915 0.59332,0.56996 0.6875,0.84375 0.109858,0.257703 0.156235,0.536787 0.15625,0.875 -1.5e-5,0.33823 -0.0775,0.662745 -0.21875,0.96875 -0.125583,0.289909 -0.32679,0.555775 -0.625,0.78125 -0.282541,0.209383 -0.63858,0.371156 -1.09375,0.5 -0.455197,0.112752 -1.012727,0.187505 -1.65625,0.1875 -0.580762,5e-6 -1.215634,-0.07475 -1.90625,-0.1875 C 59.731313,70.324765 59.034509,70.193276 58.3125,70 57.590479,69.79063 56.862706,69.523804 56.125,69.25 55.402981,68.976207 54.721728,68.681982 54.0625,68.34375 l 0,6.09375 c 0.627837,0.289907 1.231601,0.525482 1.84375,0.71875 0.612138,0.19327 1.247014,0.339906 1.90625,0.46875 0.659225,0.128847 1.356031,0.23293 2.09375,0.28125 C 60.643953,75.97067 61.44921,76 62.3125,76 c 1.632369,-10e-7 3.119023,-0.176921 4.4375,-0.53125 1.318447,-0.354327 2.417668,-0.885091 3.34375,-1.59375 C 71.019794,73.166346 71.747706,72.281738 72.25,71.21875 72.752251,70.15577 72.999978,68.917319 73,67.5 72.999978,66.308177 72.814041,65.275014 72.46875,64.4375 72.123418,63.600008 71.643516,62.878139 71,62.25 c -0.643554,-0.628113 -1.417848,-1.173059 -2.3125,-1.65625 -0.894689,-0.499266 -1.885599,-1.000704 -3,-1.5 -0.957468,-0.450947 -1.747315,-0.81897 -2.34375,-1.125 -0.596459,-0.322097 -1.045395,-0.617286 -1.375,-0.875 -0.329627,-0.27378 -0.546384,-0.539642 -0.65625,-0.78125 -0.109876,-0.257673 -0.18751,-0.552864 -0.1875,-0.875 -1e-5,-0.612002 0.232448,-1.083149 0.65625,-1.4375 0.43948,-0.354304 1.120588,-0.531228 2.09375,-0.53125 1.08301,2.2e-5 2.166962,0.160838 3.25,0.53125 1.083006,0.370454 2.244588,0.857711 3.4375,1.4375 l 2.15625,-5.21875 C 71.227612,49.477907 69.787621,48.932961 68.375,48.5625 66.962347,48.192091 65.444585,48.00003 63.875,48 z"
         inkscape:connector-curvature="0"
         id="path3715"
         style="font-size:48px;font-style:normal;font-variant:normal;font-weight:bold;font-stretch:normal;text-align:start;line-height:100%;writing-mode:lr-tb;text-anchor:start;fill:url(#linearGradient3745);fill-opacity:1;stroke:none;font-family:Droid Sans;-inkscape-font-specification:Droid Sans Bold" />
      <path
         d="m 26,36 0,1 11,0 c 2.649294,3.9e-5 4.939289,0.329021 6.8125,0.90625 1.901067,0.562086 3.441399,1.366964 4.625,2.40625 1.205492,1.025151 2.10914,2.272279 2.6875,3.78125 0.526069,1.356598 0.793467,2.90075 0.84375,4.625 C 51.973407,48.560517 51.999997,48.409499 52,48.25 51.999968,46.300543 51.705974,44.591933 51.125,43.09375 50.54664,41.584779 49.642992,40.337651 48.4375,39.3125 47.253899,38.273214 45.713567,37.468336 43.8125,36.90625 41.939289,36.329021 39.649294,36.000039 37,36 l -11,0 z m 37.875,12 c -1.49113,3e-5 -2.838222,0.14666 -4.0625,0.46875 -1.208598,0.306038 -2.230474,0.778148 -3.09375,1.40625 -0.863283,0.628154 -1.529123,1.42478 -2,2.375 -0.470881,0.93416 -0.718751,2.025016 -0.71875,3.28125 0,0.158998 0.02589,0.315761 0.03125,0.46875 0.06159,-1.030738 0.285685,-1.952858 0.6875,-2.75 0.470877,-0.95022 1.136717,-1.746846 2,-2.375 0.863276,-0.628102 1.885152,-1.100212 3.09375,-1.40625 1.224278,-0.32209 2.57137,-0.46872 4.0625,-0.46875 1.569585,3e-5 3.087347,0.192091 4.5,0.5625 1.302989,0.34171 2.631778,0.844581 4,1.5 l 0.34375,-0.84375 C 71.227612,49.477907 69.787621,48.932961 68.375,48.5625 66.962347,48.192091 65.444585,48.00003 63.875,48 z m -19.71875,1.125 c -0.09773,2.054034 -0.752042,3.664608 -2.09375,4.6875 -1.416336,1.09616 -3.445909,1.562523 -6.03125,1.5625 l -2.375,0 0,1 2.375,0 c 2.585341,2.3e-5 4.614914,-0.46634 6.03125,-1.5625 1.456427,-1.110351 2.124974,-2.906836 2.125,-5.21875 -2e-6,-0.161961 -0.02445,-0.311684 -0.03125,-0.46875 z m 17.03125,6.78125 c -0.04415,0.164474 -0.0625,0.339999 -0.0625,0.53125 -1e-5,0.322136 0.07762,0.617327 0.1875,0.875 0.109866,0.241608 0.326623,0.50747 0.65625,0.78125 0.329605,0.257714 0.778541,0.552903 1.375,0.875 0.596435,0.30603 1.386282,0.674053 2.34375,1.125 1.114401,0.499296 2.105311,1.000734 3,1.5 0.894652,0.483191 1.668946,1.028137 2.3125,1.65625 0.643516,0.628139 1.123418,1.350008 1.46875,2.1875 0.298996,0.725223 0.457225,1.599139 0.5,2.59375 C 72.976999,67.854495 72.999997,67.682691 73,67.5 72.999978,66.308177 72.814041,65.275014 72.46875,64.4375 72.123418,63.600008 71.643516,62.878139 71,62.25 c -0.643554,-0.628113 -1.417848,-1.173059 -2.3125,-1.65625 -0.894689,-0.499266 -1.885599,-1.000704 -3,-1.5 -0.957468,-0.450947 -1.747315,-0.81897 -2.34375,-1.125 -0.596459,-0.322097 -1.045395,-0.617286 -1.375,-0.875 -0.329627,-0.27378 -0.546384,-0.539642 -0.65625,-0.78125 -0.05494,-0.128836 -0.09186,-0.259976 -0.125,-0.40625 z m -7.125,12.4375 0,1 c 0.659228,0.338232 1.340481,0.632457 2.0625,0.90625 0.737706,0.273804 1.465479,0.54063 2.1875,0.75 0.722009,0.193276 1.418813,0.324765 2.09375,0.4375 0.690616,0.11275 1.325488,0.187505 1.90625,0.1875 0.643523,5e-6 1.201053,-0.07475 1.65625,-0.1875 0.45517,-0.128844 0.811209,-0.290617 1.09375,-0.5 0.29821,-0.225475 0.499417,-0.491341 0.625,-0.78125 0.14125,-0.306005 0.218735,-0.63052 0.21875,-0.96875 -9e-6,-0.208412 -0.02328,-0.39016 -0.0625,-0.5625 -0.03668,0.182658 -0.07693,0.359416 -0.15625,0.53125 -0.125583,0.289909 -0.32679,0.555775 -0.625,0.78125 -0.282541,0.209383 -0.63858,0.371156 -1.09375,0.5 -0.455197,0.112752 -1.012727,0.187505 -1.65625,0.1875 -0.580762,5e-6 -1.215634,-0.07475 -1.90625,-0.1875 C 59.731313,70.324765 59.034509,70.193276 58.3125,70 57.590479,69.79063 56.862706,69.523804 56.125,69.25 55.402981,68.976207 54.721728,68.681982 54.0625,68.34375 z"
         inkscape:connector-curvature="0"
         id="path3747"
         style="font-size:48px;font-style:normal;font-variant:normal;font-weight:bold;font-stretch:normal;text-align:start;line-height:100%;writing-mode:lr-tb;text-anchor:start;opacity:0.6;fill:#123b72;fill-opacity:1;stroke:none;font-family:Droid Sans;-inkscape-font-specification:Droid Sans Bold" />
      <path
         d="m 26,36 0,40 7.65625,0 0,-14.65625 2.65625,0 c 3.007821,1.4e-5 5.496289,-0.376132 7.46875,-1.09375 2.017576,-0.727286 3.626148,-1.691995 4.8125,-2.875 1.217362,-1.19583 2.068695,-2.559991 2.59375,-4.125 0.533685,-1.590867 0.812468,-3.25766 0.8125,-5 -3.2e-5,-1.949457 -0.294026,-3.658067 -0.875,-5.15625 C 50.54664,41.584779 49.642992,40.337651 48.4375,39.3125 47.253899,38.273214 45.713567,37.468336 43.8125,36.90625 41.939289,36.329021 39.649294,36.000039 37,36 l -11,0 z m 1.0625,1.0625 9.9375,0 c 2.560646,3.8e-5 4.752091,0.336383 6.5,0.875 1.785333,0.527867 3.175311,1.271286 4.21875,2.1875 a 1.0710363,1.0710363 0 0 0 0.03125,0 c 1.080166,0.918574 1.859484,1.998743 2.375,3.34375 0.52577,1.355827 0.81247,2.939453 0.8125,4.78125 -3e-5,1.628117 -0.252286,3.172609 -0.75,4.65625 -0.473712,1.411974 -1.238788,2.633332 -2.34375,3.71875 -1.049746,1.046784 -2.533309,1.938587 -4.4375,2.625 -1.813494,0.659783 -4.175216,1.031264 -7.09375,1.03125 l -2.65625,0 a 1.0710363,1.0710363 0 0 0 -1.0625,1.0625 l 0,13.59375 -5.53125,0 0,-37.875 z m 6.40625,3.84375 a 1.0710363,1.0710363 0 0 0 -0.875,1.0625 l 0,13.40625 a 1.0710363,1.0710363 0 0 0 1.0625,1.0625 l 2.375,0 c 2.714134,2.4e-5 4.995826,-0.471995 6.6875,-1.78125 1.773677,-1.352216 2.531222,-3.544135 2.53125,-6.0625 -2.8e-5,-2.355531 -0.680164,-4.449374 -2.28125,-5.8125 -1.566483,-1.356123 -3.750693,-1.874963 -6.40625,-1.875 l -2.90625,0 a 1.0710363,1.0710363 0 0 0 -0.1875,0 z m 0.1875,1.0625 2.90625,0 c 2.511415,3.5e-5 4.427443,0.5071 5.71875,1.625 1.306893,1.112657 1.906224,2.84282 1.90625,5 -2.6e-5,2.311914 -0.668573,4.108399 -2.125,5.21875 -1.416336,1.09616 -3.445909,1.562523 -6.03125,1.5625 l -2.375,0 0,-13.40625 z M 63.875,48 c -1.49113,3e-5 -2.838222,0.14666 -4.0625,0.46875 -1.208598,0.306038 -2.230474,0.778148 -3.09375,1.40625 -0.863283,0.628154 -1.529123,1.42478 -2,2.375 -0.470881,0.93416 -0.718751,2.025016 -0.71875,3.28125 -10e-7,1.143534 0.139416,2.131263 0.40625,2.96875 0.26683,0.821415 0.653834,1.574532 1.1875,2.21875 0.549356,0.644249 1.261859,1.21852 2.09375,1.75 0.847577,0.515399 1.822934,1.03102 2.96875,1.5625 1.177189,0.54761 2.121866,1.019721 2.8125,1.40625 0.706307,0.370445 1.232729,0.725246 1.59375,1.03125 0.360992,0.289915 0.59332,0.56996 0.6875,0.84375 0.109858,0.257703 0.156235,0.536787 0.15625,0.875 -1.5e-5,0.33823 -0.0775,0.662745 -0.21875,0.96875 -0.125583,0.289909 -0.32679,0.555775 -0.625,0.78125 -0.282541,0.209383 -0.63858,0.371156 -1.09375,0.5 -0.455197,0.112752 -1.012727,0.187505 -1.65625,0.1875 -0.580762,5e-6 -1.215634,-0.07475 -1.90625,-0.1875 C 59.731313,70.324765 59.034509,70.193276 58.3125,70 57.590479,69.79063 56.862706,69.523804 56.125,69.25 55.402981,68.976207 54.721728,68.681982 54.0625,68.34375 l 0,6.09375 c 0.627837,0.289907 1.231601,0.525482 1.84375,0.71875 0.612138,0.19327 1.247014,0.339906 1.90625,0.46875 0.659225,0.128847 1.356031,0.23293 2.09375,0.28125 C 60.643953,75.97067 61.44921,76 62.3125,76 c 1.632369,-10e-7 3.119023,-0.176921 4.4375,-0.53125 1.318447,-0.354327 2.417668,-0.885091 3.34375,-1.59375 C 71.019794,73.166346 71.747706,72.281738 72.25,71.21875 72.752251,70.15577 72.999978,68.917319 73,67.5 72.999978,66.308177 72.814041,65.275014 72.46875,64.4375 72.123418,63.600008 71.643516,62.878139 71,62.25 c -0.643554,-0.628113 -1.417848,-1.173059 -2.3125,-1.65625 -0.894689,-0.499266 -1.885599,-1.000704 -3,-1.5 -0.957468,-0.450947 -1.747315,-0.81897 -2.34375,-1.125 -0.596459,-0.322097 -1.045395,-0.617286 -1.375,-0.875 -0.329627,-0.27378 -0.546384,-0.539642 -0.65625,-0.78125 -0.109876,-0.257673 -0.18751,-0.552864 -0.1875,-0.875 -1e-5,-0.612002 0.232448,-1.083149 0.65625,-1.4375 0.43948,-0.354304 1.120588,-0.531228 2.09375,-0.53125 1.08301,2.2e-5 2.166962,0.160838 3.25,0.53125 1.083006,0.370454 2.244588,0.857711 3.4375,1.4375 l 2.15625,-5.21875 C 71.227612,49.477907 69.787621,48.932961 68.375,48.5625 66.962347,48.192091 65.444585,48.00003 63.875,48 z m 0,1.0625 c 1.482236,2.8e-5 2.900284,0.185538 4.21875,0.53125 1.033051,0.270918 2.131852,0.735547 3.21875,1.21875 l -1.34375,3.21875 C 69.121786,53.653001 68.264055,53.272043 67.46875,53 66.268494,52.589498 65.06401,52.406274 63.875,52.40625 c -1.10295,2.5e-5 -2.056485,0.165703 -2.78125,0.75 a 1.0710363,1.0710363 0 0 0 0,0.03125 c -0.634333,0.530381 -1.031264,1.366807 -1.03125,2.25 -1.5e-5,0.494217 0.09576,0.919542 0.25,1.28125 A 1.0710363,1.0710363 0 0 0 60.34375,56.75 c 0.207032,0.455288 0.523246,0.812181 0.9375,1.15625 a 1.0710363,1.0710363 0 0 0 0.03125,0.03125 c 0.388727,0.303941 0.891771,0.623422 1.53125,0.96875 0.627836,0.322142 1.419728,0.706337 2.375,1.15625 a 1.0710363,1.0710363 0 0 0 0.03125,0 c 1.086417,0.486758 2.038938,0.984761 2.90625,1.46875 a 1.0710363,1.0710363 0 0 0 0.03125,0 c 0.825747,0.445976 1.504645,0.95553 2.0625,1.5 0.540478,0.527564 0.924037,1.097767 1.21875,1.8125 0.278634,0.675835 0.46873,1.5758 0.46875,2.65625 -2e-5,1.29254 -0.23315,2.354537 -0.65625,3.25 -0.429598,0.909143 -1.044196,1.669392 -1.84375,2.28125 -0.80623,0.616946 -1.765091,1.082772 -2.96875,1.40625 -1.209908,0.325152 -2.60126,0.499999 -4.15625,0.5 -0.839034,0 -1.614017,-0.03275 -2.3125,-0.09375 a 1.0710363,1.0710363 0 0 0 -0.03125,0 C 59.287229,74.799111 58.657602,74.684922 58.03125,74.5625 57.395103,74.438169 56.776462,74.301086 56.21875,74.125 55.859382,74.01154 55.488465,73.867673 55.125,73.71875 l 0,-3.75 c 0.210255,0.08631 0.409852,0.199665 0.625,0.28125 0.740331,0.274778 1.479106,0.557708 2.25,0.78125 a 1.0710363,1.0710363 0 0 0 0.03125,0 c 0.771068,0.206409 1.497234,0.353455 2.1875,0.46875 0.719331,0.117438 1.421082,0.187506 2.09375,0.1875 0.726462,6e-6 1.360186,-0.08349 1.90625,-0.21875 a 1.0710363,1.0710363 0 0 0 0.03125,0 c 0.54039,-0.152967 1.021188,-0.347733 1.4375,-0.65625 a 1.0710363,1.0710363 0 0 0 0.03125,-0.03125 c 0.436405,-0.329964 0.741001,-0.733882 0.9375,-1.1875 0.199536,-0.432277 0.312478,-0.904491 0.3125,-1.40625 -1.8e-5,-0.415417 -0.06046,-0.821468 -0.21875,-1.21875 -0.0079,-0.01977 0.0084,-0.04286 0,-0.0625 l -0.03125,0 C 66.52061,66.383855 66.165617,65.99445 65.75,65.65625 65.741,65.64865 65.72785,65.63263 65.71875,65.625 65.28621,65.262618 64.73247,64.886121 64,64.5 c -0.0093,-0.0049 -0.02185,0.0049 -0.03125,0 -0.727199,-0.405989 -1.693343,-0.887811 -2.875,-1.4375 -1.116414,-0.517842 -2.036883,-1.009356 -2.84375,-1.5 -0.770739,-0.492411 -1.387159,-0.99579 -1.84375,-1.53125 -0.428638,-0.517433 -0.737091,-1.140473 -0.96875,-1.84375 -0.0026,-0.0082 0.0026,-0.02304 0,-0.03125 -0.220864,-0.703954 -0.375001,-1.580696 -0.375,-2.625 -10e-7,-1.115362 0.236961,-2.042686 0.625,-2.8125 0.398271,-0.803704 0.929444,-1.439901 1.65625,-1.96875 0.744607,-0.541761 1.624968,-0.973035 2.71875,-1.25 a 1.0710363,1.0710363 0 0 0 0.03125,0 c 1.114687,-0.293258 2.360313,-0.437471 3.78125,-0.4375 z"
         inkscape:connector-curvature="0"
         id="path3757"
         style="font-size:48px;font-style:normal;font-variant:normal;font-weight:bold;font-stretch:normal;text-align:start;line-height:100%;writing-mode:lr-tb;text-anchor:start;opacity:0.2;fill:#0c2548;fill-opacity:1;stroke:none;font-family:Droid Sans;-inkscape-font-specification:Droid Sans Bold" />
      <path
         d="m 33.65625,41.96875 0,1 2.90625,0 c 2.511415,3.5e-5 4.427443,0.5071 5.71875,1.625 1.208772,1.029119 1.791177,2.596331 1.875,4.53125 0.0084,-0.175624 0.03125,-0.349147 0.03125,-0.53125 -2.6e-5,-2.15718 -0.599357,-3.887343 -1.90625,-5 -1.291307,-1.1179 -3.207335,-1.624965 -5.71875,-1.625 l -2.90625,0 z m 18.3125,6.75 c -0.04621,1.570273 -0.29642,3.086016 -0.78125,4.53125 -0.525055,1.565009 -1.376388,2.92917 -2.59375,4.125 -1.186352,1.183005 -2.794924,2.147714 -4.8125,2.875 -1.972461,0.717618 -4.460929,1.093764 -7.46875,1.09375 l -2.65625,0 0,1 2.65625,0 c 3.007821,1.4e-5 5.496289,-0.376132 7.46875,-1.09375 2.017576,-0.727286 3.626148,-1.691995 4.8125,-2.875 1.217362,-1.19583 2.068695,-2.559991 2.59375,-4.125 0.533685,-1.590867 0.812468,-3.25766 0.8125,-5 -3e-6,-0.184233 -0.026,-0.351294 -0.03125,-0.53125 z M 72.375,51.0625 70.5625,55.4375 C 69.369588,54.857711 68.208006,54.370454 67.125,54 c -1.083038,-0.370412 -2.16699,-0.531228 -3.25,-0.53125 -0.973162,2.2e-5 -1.65427,0.176946 -2.09375,0.53125 -0.423802,0.354351 -0.65626,0.825498 -0.65625,1.4375 -5e-6,0.161068 0.02936,0.322476 0.0625,0.46875 0.09712,-0.361843 0.302386,-0.662634 0.59375,-0.90625 0.43948,-0.354304 1.120588,-0.531228 2.09375,-0.53125 1.08301,2.2e-5 2.166962,0.160838 3.25,0.53125 1.083006,0.370454 2.244588,0.857711 3.4375,1.4375 l 2.15625,-5.21875 C 72.603024,51.161254 72.490121,51.117646 72.375,51.0625 z M 54.03125,56 C 54.020663,56.177169 54,56.346992 54,56.53125 c -10e-7,1.143534 0.139416,2.131263 0.40625,2.96875 0.26683,0.821415 0.653834,1.574532 1.1875,2.21875 0.549356,0.644249 1.261859,1.21852 2.09375,1.75 0.847577,0.515399 1.822934,1.03102 2.96875,1.5625 1.177189,0.54761 2.121866,1.019721 2.8125,1.40625 0.706307,0.370445 1.232729,0.725246 1.59375,1.03125 0.360992,0.289915 0.59332,0.56996 0.6875,0.84375 0.04216,0.0989 0.06932,0.205166 0.09375,0.3125 0.02864,-0.142623 0.06249,-0.289199 0.0625,-0.4375 -1.5e-5,-0.338213 -0.04639,-0.617297 -0.15625,-0.875 -0.09418,-0.27379 -0.326508,-0.553835 -0.6875,-0.84375 -0.361021,-0.306004 -0.887443,-0.660805 -1.59375,-1.03125 -0.690634,-0.386529 -1.635311,-0.85864 -2.8125,-1.40625 -1.145816,-0.53148 -2.121173,-1.047101 -2.96875,-1.5625 -0.831891,-0.53148 -1.544394,-1.105751 -2.09375,-1.75 C 55.060084,60.074532 54.67308,59.321415 54.40625,58.5 54.176517,57.778958 54.064428,56.947326 54.03125,56 z m 18.9375,12.03125 C 72.913,69.225759 72.687511,70.292787 72.25,71.21875 71.747706,72.281738 71.019794,73.166346 70.09375,73.875 69.167668,74.583659 68.068447,75.114423 66.75,75.46875 65.431523,75.823079 63.944869,75.999999 62.3125,76 61.44921,76 60.643953,75.97067 59.90625,75.90625 59.168531,75.85793 58.471725,75.753847 57.8125,75.625 57.153264,75.496156 56.518388,75.34952 55.90625,75.15625 55.294101,74.962982 54.690337,74.727407 54.0625,74.4375 l 0,1 c 0.627837,0.289907 1.231601,0.525482 1.84375,0.71875 0.612138,0.19327 1.247014,0.339906 1.90625,0.46875 0.659225,0.128847 1.356031,0.23293 2.09375,0.28125 C 60.643953,76.97067 61.44921,77 62.3125,77 c 1.632369,-10e-7 3.119023,-0.176921 4.4375,-0.53125 1.318447,-0.354327 2.417668,-0.885091 3.34375,-1.59375 0.926044,-0.708654 1.653956,-1.593262 2.15625,-2.65625 0.502251,-1.06298 0.749978,-2.301431 0.75,-3.71875 -3e-6,-0.159795 -0.02463,-0.314748 -0.03125,-0.46875 z M 26,76 l 0,1 7.65625,0 0,-1 L 26,76 z"
         inkscape:connector-curvature="0"
         id="path3764"
         style="font-size:48px;font-style:normal;font-variant:normal;font-weight:bold;font-stretch:normal;text-align:start;line-height:100%;writing-mode:lr-tb;text-anchor:start;opacity:0.8;fill:#ffffff;fill-opacity:1;stroke:none;font-family:Droid Sans;-inkscape-font-specification:Droid Sans Bold" />
    </g>
    <path
       style="fill:url(#linearGradient10213);fill-opacity:1"
       id="path14523"
       d="M 79.172,120 C 79.172,120 91.086,110.086 96.586,104.586 C 102.086,99.086 112,87.172 112,87.172 C 112,87.172 98.25,96 88,96 C 88,106.25 79.172,120 79.172,120 z"
       sodipodi:nodetypes="csccc" />
  </g>
</svg>
